<?xml version="1.0" encoding="UTF-8"?>
<svg id="Layer_1" xmlns="http://www.w3.org/2000/svg" xmlns:xlink="http://www.w3.org/1999/xlink" version="1.1" viewBox="0 0 571 643">
  <!-- Generator: Adobe Illustrator 30.4.0, SVG Export Plug-In . SVG Version: 2.1.4 Build 226)  -->
  <defs>
    <style>
      .st0, .st1, .st2, .st3 {
        fill: none;
      }

      .st4 {
        mask: url(#mask);
      }

      .st1, .st2, .st3 {
        stroke: #ab5d16;
      }

      .st2 {
        stroke-linecap: round;
        stroke-linejoin: round;
      }

      .st5 {
        mask: url(#mask-1);
      }

      .st6, .st7 {
        fill: #ab5d16;
      }

      .st8 {
        fill: #fff;
      }

      .st7 {
        display: none;
      }

      .st3 {
        stroke-width: 1.07px;
      }

      .st9 {
        clip-path: url(#clippath);
      }
    </style>
    <clipPath id="clippath">
      <rect class="st0" width="571" height="643"/>
    </clipPath>
    <mask id="mask" x="73" y="300" width="86" height="36.01" maskUnits="userSpaceOnUse">
      <g id="mask0_23929_111123">
        <path class="st8" d="M159,300h-86v36h86v-36Z"/>
      </g>
    </mask>
    <mask id="mask-1" x="413" y="300" width="87" height="36" maskUnits="userSpaceOnUse">
      <g id="mask1_23929_111123">
        <path class="st8" d="M500,300h-87v36h87v-36Z"/>
      </g>
    </mask>
  </defs>
  <g class="st9">
    <g>
      <path class="st3" d="M72.04.97H.74v71.32h71.3V.97Z"/>
      <path class="st3" d="M143.06.97h-71.3v71.32h71.3V.97Z"/>
      <path class="st3" d="M72.04,72.21H.74v71.32h71.3v-71.32Z"/>
      <path class="st3" d="M143.06,72.21h-71.3v71.32h71.3v-71.32Z"/>
      <path class="st3" d="M72.04,143.22H.74v71.32h71.3v-71.32Z"/>
      <path class="st3" d="M143.06,143.22h-71.3v71.32h71.3v-71.32Z"/>
      <path class="st3" d="M72.04,214.45H.74v71.32h71.3v-71.32Z"/>
      <path class="st3" d="M143.06,214.45h-71.3v71.32h71.3v-71.32Z"/>
      <path class="st3" d="M569.97,285.74H.74v71.1h569.23v-71.1Z"/>
      <path class="st3" d="M214.35.97h-71.3v71.32h71.3V.97Z"/>
      <path class="st3" d="M285.37.97h-71.3v71.32h71.3V.97Z"/>
      <path class="st3" d="M214.35,72.21h-71.3v71.32h71.3v-71.32Z"/>
      <path class="st3" d="M285.37,72.21h-71.3v71.32h71.3v-71.32Z"/>
      <path class="st3" d="M214.35,143.22h-71.3v71.32h71.3v-71.32Z"/>
      <path class="st3" d="M285.37,143.22h-71.3v71.32h71.3v-71.32Z"/>
      <path class="st3" d="M214.35,214.45h-71.3v71.32h71.3v-71.32Z"/>
      <path class="st3" d="M285.37,214.45h-71.3v71.32h71.3v-71.32Z"/>
      <path class="st3" d="M356.63.97h-71.3v71.32h71.3V.97Z"/>
      <path class="st3" d="M427.65.97h-71.3v71.32h71.3V.97Z"/>
      <path class="st3" d="M356.63,72.21h-71.3v71.32h71.3v-71.32Z"/>
      <path class="st3" d="M427.65,72.21h-71.3v71.32h71.3v-71.32Z"/>
      <path class="st3" d="M356.63,143.22h-71.3v71.32h71.3v-71.32Z"/>
      <path class="st3" d="M427.65,143.22h-71.3v71.32h71.3v-71.32Z"/>
      <path class="st3" d="M356.63,214.45h-71.3v71.32h71.3v-71.32Z"/>
      <path class="st3" d="M427.65,214.45h-71.3v71.32h71.3v-71.32Z"/>
      <path class="st3" d="M498.94.97h-71.3v71.32h71.3V.97Z"/>
      <path class="st3" d="M569.97.97h-71.3v71.32h71.3V.97Z"/>
      <path class="st3" d="M498.94,72.21h-71.3v71.32h71.3v-71.32Z"/>
      <path class="st3" d="M569.97,72.21h-71.3v71.32h71.3v-71.32Z"/>
      <path class="st3" d="M498.94,143.22h-71.3v71.32h71.3v-71.32Z"/>
      <path class="st3" d="M569.97,143.22h-71.3v71.32h71.3v-71.32Z"/>
      <path class="st3" d="M498.94,214.45h-71.3v71.32h71.3v-71.32Z"/>
      <path class="st3" d="M569.97,214.45h-71.3v71.32h71.3v-71.32Z"/>
      <path class="st3" d="M72.04,357.14H.74v71.32h71.3v-71.32Z"/>
      <path class="st3" d="M143.06,357.14h-71.3v71.32h71.3v-71.32Z"/>
      <path class="st3" d="M72.04,428.38H.74v71.32h71.3v-71.32Z"/>
      <path class="st3" d="M143.06,428.38h-71.3v71.32h71.3v-71.32Z"/>
      <path class="st3" d="M72.04,499.39H.74v71.32h71.3v-71.32Z"/>
      <path class="st3" d="M143.06,499.39h-71.3v71.32h71.3v-71.32Z"/>
      <path class="st3" d="M72.04,570.63H.74v71.32h71.3v-71.32Z"/>
      <path class="st3" d="M143.06,570.63h-71.3v71.32h71.3v-71.32Z"/>
      <path class="st3" d="M214.35,357.14h-71.3v71.32h71.3v-71.32Z"/>
      <path class="st3" d="M285.37,357.14h-71.3v71.32h71.3v-71.32Z"/>
      <path class="st3" d="M214.35,428.38h-71.3v71.32h71.3v-71.32Z"/>
      <path class="st3" d="M285.37,428.38h-71.3v71.32h71.3v-71.32Z"/>
      <path class="st3" d="M214.35,499.39h-71.3v71.32h71.3v-71.32Z"/>
      <path class="st3" d="M285.37,499.39h-71.3v71.32h71.3v-71.32Z"/>
      <path class="st3" d="M214.35,570.63h-71.3v71.32h71.3v-71.32Z"/>
      <path class="st3" d="M285.37,570.63h-71.3v71.32h71.3v-71.32Z"/>
      <path class="st3" d="M356.63,357.14h-71.3v71.32h71.3v-71.32Z"/>
      <path class="st3" d="M427.65,357.14h-71.3v71.32h71.3v-71.32Z"/>
      <path class="st3" d="M356.63,428.38h-71.3v71.32h71.3v-71.32Z"/>
      <path class="st3" d="M427.65,428.38h-71.3v71.32h71.3v-71.32Z"/>
      <path class="st3" d="M356.63,499.39h-71.3v71.32h71.3v-71.32Z"/>
      <path class="st3" d="M427.65,499.39h-71.3v71.32h71.3v-71.32Z"/>
      <path class="st3" d="M356.63,570.63h-71.3v71.32h71.3v-71.32Z"/>
      <path class="st3" d="M427.65,570.63h-71.3v71.32h71.3v-71.32Z"/>
      <path class="st3" d="M498.94,357.14h-71.3v71.32h71.3v-71.32Z"/>
      <path class="st3" d="M569.97,357.14h-71.3v71.32h71.3v-71.32Z"/>
      <path class="st3" d="M498.94,428.38h-71.3v71.32h71.3v-71.32Z"/>
      <path class="st3" d="M569.97,428.38h-71.3v71.32h71.3v-71.32Z"/>
      <path class="st3" d="M498.94,499.39h-71.3v71.32h71.3v-71.32Z"/>
      <path class="st3" d="M569.97,499.39h-71.3v71.32h71.3v-71.32Z"/>
      <path class="st3" d="M498.94,570.63h-71.3v71.32h71.3v-71.32Z"/>
      <path class="st3" d="M569.97,570.63h-71.3v71.32h71.3v-71.32Z"/>
      <path class="st3" d="M214.74,1.43l141.52,141.57"/>
      <path class="st3" d="M214.74,500.33l141.17,141.22"/>
      <path class="st3" d="M356.62,1.07l-141.88,141.57"/>
      <path class="st3" d="M356.62,499.6l-141.88,141.93"/>
      <path class="st1" d="M570.5.5H.5v642h570V.5Z"/>
      <path class="st2" d="M78.06,132.16v5.5h5.5"/>
      <path class="st2" d="M66.56,154.65v-5.5h-5.5"/>
      <path class="st2" d="M61.07,137.65h5.5v-5.5"/>
      <path class="st2" d="M83.56,149.15h-5.5v5.5"/>
      <path class="st2" d="M504.91,132.16v5.5h5.5"/>
      <path class="st2" d="M493.42,154.65v-5.5h-5.5"/>
      <path class="st2" d="M487.92,137.65h5.5v-5.5"/>
      <path class="st2" d="M510.41,149.15h-5.5v5.5"/>
      <path class="st2" d="M433.94,203.12v5.5h5.5"/>
      <path class="st2" d="M422.44,225.61v-5.5h-5.5"/>
      <path class="st2" d="M416.94,208.62h5.5v-5.5"/>
      <path class="st2" d="M439.44,220.12h-5.5v5.5"/>
      <path class="st2" d="M433.94,417.02v5.5h5.5"/>
      <path class="st2" d="M422.44,439.51v-5.5h-5.5"/>
      <path class="st2" d="M416.94,422.51h5.5v-5.5"/>
      <path class="st2" d="M439.44,434.01h-5.5v5.5"/>
      <path class="st2" d="M564.39,225.61v-5.5h-5.5"/>
      <path class="st2" d="M558.9,208.62h5.5v-5.5"/>
      <path class="st2" d="M564.39,439.51v-5.5h-5.5"/>
      <path class="st2" d="M558.9,422.51h5.5v-5.5"/>
      <path class="st2" d="M290.99,202.12v5.5h5.5"/>
      <path class="st2" d="M279.49,224.61v-5.5h-5.5"/>
      <path class="st2" d="M273.99,207.62h5.5v-5.5"/>
      <path class="st2" d="M296.48,219.12h-5.5v5.5"/>
      <path class="st2" d="M290.99,416.02v5.5h5.5"/>
      <path class="st2" d="M279.49,438.51v-5.5h-5.5"/>
      <path class="st2" d="M273.99,421.51h5.5v-5.5"/>
      <path class="st2" d="M296.48,433.01h-5.5v5.5"/>
      <path class="st2" d="M78.06,487.98v5.5h5.5"/>
      <path class="st2" d="M66.56,510.48v-5.5h-5.5"/>
      <path class="st2" d="M61.07,493.48h5.5v-5.5"/>
      <path class="st2" d="M83.56,504.98h-5.5v5.5"/>
      <path class="st2" d="M504.91,487.98v5.5h5.5"/>
      <path class="st2" d="M493.42,510.48v-5.5h-5.5"/>
      <path class="st2" d="M487.92,493.48h5.5v-5.5"/>
      <path class="st2" d="M510.41,504.98h-5.5v5.5"/>
      <path class="st2" d="M149.04,203.12v5.5h5.5"/>
      <path class="st2" d="M137.54,225.61v-5.5h-5.5"/>
      <path class="st2" d="M132.04,208.62h5.5v-5.5"/>
      <path class="st2" d="M154.53,220.12h-5.5v5.5"/>
      <path class="st2" d="M149.04,417.02v5.5h5.5"/>
      <path class="st2" d="M137.54,439.51v-5.5h-5.5"/>
      <path class="st2" d="M132.04,422.51h5.5v-5.5"/>
      <path class="st2" d="M154.53,434.01h-5.5v5.5"/>
      <path class="st2" d="M6.08,203.12v5.5h5.5"/>
      <path class="st2" d="M11.58,220.12h-5.5v5.5"/>
      <path class="st2" d="M6.08,417.02v5.5h5.5"/>
      <path class="st2" d="M11.58,434.01h-5.5v5.5"/>
      <g class="st4">
        <g>
          <path class="st6" d="M97.98,304.71c3.92,1.08,4.5-4.71,8.33-.63,3.78,4.02-5.5,2.21-7.05,2.38-3.33.35.73,3.31,1.97,4.09,1.29.82,8.55,3.12,6.78,5.62-.12.17-3.65,1.19-4.03,1.02-1.67-.74-4.49-5.52-6.67-6.4.8,2.69.92,4.71,0,7.41,7.24-1.93,11.33,4.57,1.34,4.73,5.48,5.76-4.22,2.35-5.39,3.01-1.17.66-1.05,4.62-.61,5.05.73.71,13.67,1.05,15.36-1.32.33,8.7-15.91,5.23-20.04,2.32-1.39-.98-1.9-3.32-4.04-3.67,0,3.07-7.27,8.55-9.4,7.1-2.22-1.5,1.68-2.54,3.01-3.75,3.61-3.29,4.82-5.93,5.71-10.76-1.4-.62-7.02,1.14-7.36-.35-.86-3.8,4.14-.84,5.35-1.68l-.67-5.39-7.36,5.39c-1.29-1.5,3.84-5.92,4.67-7.1,4.61-6.51.56-3.76-4.33-4.36-2.02-4.66,6.27-1.28,7.03-2.02-.54-5.9.06-4.81,5.35-4.72.55,1.14-2.1,4-1.33,4.71,1.55,1.44,2.9-1.35,3.09-1.38,1.62-.24,3.97,1.92,5.84,1.32,2.26-.72.32-3.37.51-4.27.47-2.19,5.17-.45,5.25.61.04.48-1.77,1.89-1.31,3.04h0ZM81.91,318.87h14.73c.22-1.32-1.55-.32-1.96-.71-.37-.36.17-4.91-.05-6.03-2.56,2.62-5.29,5.57-9.37,5.39,2.73-3.66,8.23-5.74,8.71-10.78-2.45-1.31-3.68.52-5.08.66-1.09.12-4.34-.7-4.96,0-1.23,1.4,3.21,1.6,4.37,2.67,1.91,1.77.29,3.3-1.98,3.37l-2.39-4.02c-.5,2.15.89,6.48.03,8.33-.5,1.08-2.23-.28-2.05,1.11h0ZM84.59,320.9c2.08,1.77.45,3.38,1.14,5.19.81,2.11,3.16,4.28,3.57.57.53-4.73.61-7.39-4.72-5.76ZM99.32,320.23h-6.7c-1.42,8.24,3.68,4.12,6.7,0Z"/>
          <path class="st6" d="M154.72,334.21c-2.39,2.6-6.11,1.15-7.85-1.52.94-1.48,2.87-.67,4.01-1.34,3.02-1.77.76-11.28.64-14.2-.07-1.69.81-10.27.03-11.1-4.25.74-11.88-.98-15.64-.01-.76.2-.14,1.39-.76,1.37-.65-.02-.1-.91-.44-1.2-1.28-1.1-3.82,1.3-4.83,1.11-1.42-.27-3.57-6.2-3.1-6.65,5.12-1.6,4.97,2.93,8.34,3.4,2.6.36,14.38.43,16.78-.03,1.97-.37,3.58-6.34,6.39-1.73,2.52,4.14-2.27,2.98-2.73,5.42-.98,5.23,1.51,23.95-.83,26.48h0Z"/>
          <path class="st6" d="M147.52,323.25c-.99,3.55-3.65.05-4.49-.22-4.19-1.33-3.73,3.91-5.22,3.91-2.28,0-.37-9.64-.31-11.14.07-1.61-1.25-3.81-.4-5.05,1.4-1.6,2.78.37,4.45.37,1.95,0,5.12-2.23,6.35.36.45.95-.38,1.42-.38,1.66,0,2.34.47,8.43,0,10.12ZM144.13,312.84c-.36-.35-3.68-.2-4.33.6-.24.29.1,7.17.36,7.44.14.14,3.86.15,4,0,.36-.38.55-7.47-.03-8.04Z"/>
          <path class="st6" d="M125.88,326.08c1.16-1.47,1.59-4.13,2.43-6,.6-1.33.91-1.97,1.46-3.2,1.31-2.97,2.31-7.16,5.03-8.79-.04,3.95-2.63,7.39-3.69,10.77-.41,1.31-.25,2.71-.65,4.07-.43,1.45-2.09,4.01-2.19,5.17-.16,1.9,2.8,3.6,1.53,6.27-2.56,5.4-4.18-4.15-4.56-5.52-.2-.73-1.12-1.46-1.12-1.55.01-.45,1.45-.81,1.77-1.21h0Z"/>
          <path class="st6" d="M122.75,312.12c2.95-4.67,9.91,3.62,5.01,4.11-3.08.31-2.12-3.94-5.01-4.11Z"/>
        </g>
      </g>
      <path class="st7" d="M236.1,326.02c-.03-.2-.03-.41,0-.64.59-.05,1.01-.11,1.26-.18.25-.08.38-.21.38-.38,0-.11-.04-.23-.12-.36-.07-.13-.16-.29-.28-.48l-2.5-3.92-2.78,3.84c-.13.2-.24.37-.32.5s-.12.25-.12.36c0,.19.15.32.44.4.29.08.75.15,1.36.22.03.23.03.44,0,.64-.15,0-.36,0-.64-.02h-1.76c-.27-.01-.47-.02-.62-.02-.43,0-.84,0-1.24.02-.39.01-.73.02-1.04.02-.03-.21-.03-.43,0-.64.39-.04.71-.09.98-.16.27-.07.51-.17.72-.32.21-.16.43-.37.66-.64.24-.28.53-.64.86-1.08l2.94-3.98-2.9-4.52c-.28-.44-.52-.79-.72-1.04-.2-.25-.4-.45-.6-.58s-.43-.23-.68-.28c-.24-.07-.55-.12-.94-.16-.04-.21-.04-.43,0-.64.48,0,.98,0,1.5.02.53.01,1.05.02,1.54.02h1.02c.4-.01.79-.02,1.18-.02.4-.01.74-.02,1.02-.02.03.2.03.41,0,.64-.57.05-.98.12-1.22.2-.23.07-.34.19-.34.36,0,.09.03.21.1.34.07.13.17.31.3.52l2.22,3.48,2.5-3.44c.28-.4.42-.68.42-.84,0-.19-.14-.32-.42-.4-.27-.08-.69-.15-1.28-.22-.04-.23-.04-.44,0-.64.19,0,.47,0,.86.02.4,0,.79,0,1.18.02h.88c.43,0,.85,0,1.28-.02.43-.01.75-.02.98-.02.04.21.04.43,0,.64-.39.04-.71.09-.98.16-.25.07-.49.17-.7.32s-.44.36-.68.64c-.24.27-.53.63-.86,1.08l-2.64,3.54,3.16,4.96c.28.44.52.79.72,1.06.2.25.4.45.6.58.2.12.43.21.68.28.25.05.57.1.96.14.03.21.03.43,0,.64-.49,0-.99,0-1.5-.02s-1.01-.02-1.52-.02c-.28,0-.63,0-1.04.02h-1.22c-.4.01-.75.02-1.04.02ZM247.97,326.02c-.37,0-.76,0-1.16-.02s-.83-.02-1.3-.02c-.43,0-.86,0-1.3.02-.43.01-.84.02-1.24.02-.04-.21-.04-.42,0-.62.45-.03.79-.07,1-.12.21-.07.35-.2.42-.4.07-.2.1-.52.1-.96v-4.48c0-.52-.02-.91-.06-1.16-.04-.25-.17-.43-.38-.52-.2-.11-.55-.19-1.06-.26-.04-.19-.04-.36,0-.52.59-.11,1.15-.24,1.68-.4.53-.16,1.05-.33,1.54-.52l.34.12c-.01.41-.03.8-.04,1.16v6.38c0,.52.03.89.08,1.12.07.23.2.37.4.44.21.05.54.09.98.12.04.2.04.41,0,.62ZM243.97,312.66c0-.39.13-.71.4-.98.28-.27.61-.4,1-.4s.69.13.96.4c.28.27.42.59.42.96,0,.35-.13.67-.4.96-.27.28-.61.42-1.02.42-.37,0-.69-.13-.96-.4-.27-.27-.4-.59-.4-.96ZM256.04,326.2c-.88,0-1.43-.44-1.66-1.32-.95.91-1.91,1.36-2.9,1.36-.68,0-1.26-.2-1.74-.6-.47-.41-.7-.98-.7-1.7,0-1.76,1.79-2.87,5.38-3.32v-.98c.01-.33.02-.69.02-1.06,0-.47-.17-.83-.52-1.08-.33-.27-.74-.4-1.22-.4-.35,0-.64.05-.88.16,0,.31-.07.62-.2.94-.13.32-.32.59-.56.82-.23.21-.51.32-.84.32-.29,0-.53-.08-.7-.24-.16-.17-.24-.38-.24-.62,0-.32.15-.62.44-.9.31-.29.69-.54,1.16-.74.47-.21.95-.38,1.46-.5.51-.12.96-.18,1.36-.18.49,0,.95.09,1.36.28.43.17.77.44,1.02.8.27.35.4.78.4,1.3,0,.32,0,.74-.02,1.26-.01.51-.03,1.05-.04,1.64,0,.57,0,1.12-.02,1.64-.01.52-.02.94-.02,1.26,0,.43.19.64.56.64.24,0,.61-.08,1.1-.24.05.07.09.14.1.22.03.08.05.15.06.22-.33.36-.69.62-1.06.78-.36.16-.73.24-1.1.24ZM254.38,324.34l.04-3c-1.23.16-2.07.42-2.54.78-.45.36-.68.82-.68,1.38,0,.47.12.83.36,1.08.25.24.57.36.94.36.24,0,.51-.05.8-.16.31-.11.67-.25,1.08-.44ZM265.05,326.02c-.03-.21-.03-.42,0-.62.41-.03.72-.07.92-.12.2-.07.33-.2.4-.4.07-.2.1-.52.1-.96v-4.04c0-.8-.13-1.39-.38-1.78-.24-.4-.73-.6-1.46-.6-.39,0-.76.07-1.12.22-.36.13-.75.39-1.18.78v5.22c0,.52.03.89.08,1.12.07.23.2.37.4.44.2.05.51.09.94.12.03.2.03.41,0,.62-.37,0-.77,0-1.18-.02-.4-.01-.83-.02-1.3-.02-.43,0-.85,0-1.26.02-.41.01-.82.02-1.22.02-.04-.21-.04-.42,0-.62.45-.03.79-.07,1-.12.21-.07.35-.2.42-.4.07-.2.1-.52.1-.96v-4.48c0-.52-.03-.91-.08-1.16-.04-.25-.17-.43-.38-.52-.2-.11-.55-.19-1.04-.26-.04-.19-.04-.36,0-.52,1.15-.23,2.2-.53,3.16-.92l.34.12v1.5c.61-.56,1.21-.95,1.8-1.18.59-.23,1.15-.34,1.68-.34.88,0,1.55.26,2.02.78s.7,1.27.7,2.24v4.54c0,.52.03.89.08,1.12.07.23.2.37.4.44.2.05.52.09.96.12.03.2.03.41,0,.62-.4,0-.79,0-1.18-.02-.37-.01-.81-.02-1.32-.02s-.93,0-1.3.02c-.36.01-.73.02-1.1.02ZM274.76,331.1c-1.17,0-2.12-.21-2.84-.62-.72-.41-1.08-.99-1.08-1.72,0-.57.2-1.05.6-1.42.4-.37.89-.75,1.48-1.12-.52-.12-.91-.33-1.18-.62-.27-.31-.4-.67-.4-1.08,0-.72.53-1.45,1.58-2.18-.44-.28-.79-.64-1.06-1.08-.27-.45-.4-.97-.4-1.56,0-.73.19-1.36.56-1.88.39-.53.89-.94,1.5-1.22.63-.29,1.29-.44,2-.44,1.04,0,1.91.29,2.6.86.72-.57,1.43-.86,2.12-.86.35,0,.62.08.82.24.2.15.3.37.3.66s-.09.53-.28.7c-.19.17-.41.26-.68.26-.25,0-.47-.07-.66-.22-.17-.16-.29-.38-.34-.66-.19.04-.34.09-.46.14-.11.05-.23.13-.38.22.45.57.68,1.25.68,2.04,0,.73-.18,1.36-.54,1.88-.36.51-.84.9-1.44,1.18-.59.27-1.23.4-1.94.4-.67,0-1.29-.12-1.86-.36-.33.33-.5.69-.5,1.06,0,.33.13.55.38.64.25.08.72.12,1.4.12h1.1c.43-.01.74-.02.94-.02,1.33,0,2.29.24,2.88.72.59.47.88,1.11.88,1.94,0,.65-.16,1.23-.48,1.72-.32.51-.75.93-1.3,1.26-.55.35-1.17.6-1.86.76-.68.17-1.39.26-2.14.26ZM273.78,326.32c-.72.6-1.08,1.23-1.08,1.9,0,.47.14.85.42,1.14.28.29.65.51,1.1.64s.93.2,1.44.2c.45,0,.93-.07,1.42-.2.49-.13.91-.37,1.26-.72.35-.33.52-.81.52-1.42,0-.56-.2-.96-.6-1.2-.39-.24-1.11-.36-2.18-.36h-.94c-.37.01-.79.02-1.24.02h-.12ZM275.36,322.3c.59,0,1.03-.23,1.34-.7.32-.48.48-1.14.48-1.98s-.16-1.53-.48-2.02c-.32-.49-.79-.74-1.4-.74-.57,0-1.02.23-1.34.7-.31.45-.46,1.1-.46,1.94s.16,1.53.48,2.04c.33.51.79.76,1.38.76ZM287.18,331.32c-.04-.21-.04-.42,0-.62.52-.03.9-.07,1.14-.14.25-.07.41-.2.48-.4.08-.19.12-.49.12-.92v-4.24c-.47.44-.96.76-1.48.96-.51.19-1.03.28-1.56.28-.89,0-1.64-.23-2.24-.68s-1.05-1.04-1.36-1.76c-.29-.72-.44-1.49-.44-2.3,0-.99.21-1.88.62-2.68.43-.81,1.02-1.46,1.78-1.94.77-.48,1.68-.72,2.72-.72.43,0,.85.05,1.26.14.41.09.82.25,1.22.48.19-.08.37-.17.54-.26.17-.11.35-.21.52-.32.19.01.35.07.48.16-.01.27-.03.6-.04,1v11.64c0,.52.03.89.08,1.12.07.23.21.37.42.42.23.07.57.11,1.04.14.04.2.04.41,0,.64-.41,0-.83,0-1.26-.02-.41-.01-.88-.02-1.4-.02s-1.01,0-1.42.02c-.4.01-.81.02-1.22.02ZM288.94,318.28c-.29-.45-.63-.78-1-.98-.36-.21-.78-.32-1.26-.32-.89,0-1.58.34-2.06,1.02-.47.67-.7,1.6-.7,2.8,0,.68.09,1.34.26,1.98.19.64.49,1.17.92,1.58.43.41,1.02.62,1.78.62.37,0,.75-.06,1.12-.18.39-.13.7-.34.94-.62v-5.9ZM298.16,326.02c-.37,0-.76,0-1.16-.02s-.83-.02-1.3-.02c-.43,0-.86,0-1.3.02-.43.01-.84.02-1.24.02-.04-.21-.04-.42,0-.62.45-.03.79-.07,1-.12.21-.07.35-.2.42-.4.07-.2.1-.52.1-.96v-4.48c0-.52-.02-.91-.06-1.16s-.17-.43-.38-.52c-.2-.11-.55-.19-1.06-.26-.04-.19-.04-.36,0-.52.59-.11,1.15-.24,1.68-.4.53-.16,1.05-.33,1.54-.52l.34.12c-.01.41-.03.8-.04,1.16v6.38c0,.52.03.89.08,1.12.07.23.2.37.4.44.21.05.54.09.98.12.04.2.04.41,0,.62ZM294.16,312.66c0-.39.13-.71.4-.98.28-.27.61-.4,1-.4s.69.13.96.4c.28.27.42.59.42.96,0,.35-.13.67-.4.96-.27.28-.61.42-1.02.42-.37,0-.69-.13-.96-.4s-.4-.59-.4-.96ZM300.08,324.76c0-.41.14-.76.42-1.04.28-.29.62-.44,1.02-.44.45,0,.81.15,1.08.46.28.29.42.63.42,1.02s-.14.75-.42,1.04c-.27.29-.63.44-1.08.44-.4,0-.74-.14-1.02-.42-.28-.29-.42-.65-.42-1.06ZM313.2,324.06c.13.16.23.31.3.46-1.11,1.15-2.37,1.72-3.8,1.72-.92,0-1.71-.22-2.36-.66-.65-.44-1.16-1.03-1.52-1.76-.35-.73-.52-1.55-.52-2.44,0-.97.2-1.85.6-2.64.4-.79.96-1.41,1.68-1.88.73-.47,1.57-.7,2.52-.7.49,0,.99.07,1.5.22.51.13.93.35,1.28.64.35.29.52.67.52,1.12,0,.36-.11.63-.32.82-.21.19-.47.28-.76.28-.4,0-.74-.18-1.02-.54-.28-.37-.42-.87-.42-1.48-.24-.16-.56-.24-.96-.24-.48,0-.89.12-1.22.36-.32.24-.59.56-.8.96-.2.4-.35.83-.44,1.3-.09.45-.14.9-.14,1.34,0,.75.13,1.41.38,2,.25.59.63,1.05,1.12,1.4.49.33,1.11.5,1.84.5.43,0,.84-.06,1.24-.18.41-.12.85-.32,1.3-.6ZM319.55,326.24c-.97,0-1.83-.21-2.56-.62-.72-.43-1.28-1.01-1.68-1.74-.4-.75-.6-1.6-.6-2.56,0-1.04.21-1.95.62-2.72.43-.77,1.02-1.37,1.78-1.8.76-.43,1.63-.64,2.62-.64s1.82.21,2.54.64,1.28,1.01,1.68,1.76c.4.75.6,1.59.6,2.54s-.21,1.85-.64,2.64c-.41.77-.99,1.39-1.74,1.84-.75.44-1.62.66-2.62.66ZM316.97,321.08c0,1.36.22,2.44.66,3.24.45.79,1.13,1.18,2.02,1.18s1.51-.37,1.96-1.12c.45-.76.68-1.77.68-3.04,0-1.35-.23-2.42-.68-3.22-.45-.8-1.11-1.2-1.98-1.2s-1.51.37-1.98,1.1c-.45.73-.68,1.75-.68,3.06ZM338.04,326.02c-.04-.21-.04-.42,0-.62.4-.03.7-.07.9-.12.2-.07.33-.2.4-.4.08-.2.12-.52.12-.96v-4.04c0-.79-.12-1.38-.36-1.78-.23-.4-.7-.6-1.42-.6-.89,0-1.65.33-2.28,1,.03.21.04.44.04.68v4.54c0,.52.03.89.08,1.12.07.23.2.37.4.44.2.05.51.09.92.12.03.2.03.41,0,.62-.37,0-.75,0-1.12-.02-.37-.01-.81-.02-1.32-.02s-.93,0-1.3.02c-.36.01-.71.02-1.04.02-.04-.21-.04-.42,0-.62.39-.03.67-.07.86-.12.2-.07.33-.2.4-.4.07-.2.1-.52.1-.96v-4.04c0-.79-.11-1.38-.34-1.78-.23-.4-.71-.6-1.44-.6-.84,0-1.57.34-2.2,1.02v5.2c0,.52.03.89.08,1.12.07.23.2.37.4.44.21.05.53.09.96.12.03.2.03.41,0,.62-.37,0-.76,0-1.16-.02-.39-.01-.83-.02-1.34-.02-.48,0-.91,0-1.3.02-.39.01-.78.02-1.18.02-.04-.21-.04-.42,0-.62.45-.03.79-.07,1-.12.21-.07.35-.2.42-.4.07-.2.1-.52.1-.96v-4.48c0-.52-.03-.91-.08-1.16-.04-.25-.17-.43-.38-.52-.2-.11-.55-.19-1.04-.26-.04-.19-.04-.36,0-.52.56-.11,1.1-.23,1.62-.38s1.03-.33,1.54-.54l.34.12v1.48c1.08-1,2.21-1.5,3.38-1.5.73,0,1.29.15,1.66.46.37.31.63.69.78,1.14.57-.55,1.16-.95,1.76-1.2.6-.27,1.21-.4,1.82-.4.88,0,1.54.26,1.98.78.45.52.68,1.27.68,2.24v4.54c0,.52.03.89.08,1.12.05.23.18.37.38.44.2.05.51.09.92.12.04.2.04.41,0,.62-.37,0-.75,0-1.12-.02-.37-.01-.81-.02-1.3-.02s-.95,0-1.34.02c-.37.01-.73.02-1.06.02Z"/>
      <g class="st5">
        <g>
          <path class="st6" d="M491.98,304.89c-.39.37,1.12,9.16-.03,10.77-1.95.12-3.62-.73-5.63-.68-4.71.13,2.68,4.25,3.97,4.78,1.82.74,9.73,1.45,9.71,2.33,0,.29-3.43,3.73-4.33,3.72-1.08,0-5.43-3.49-7.7-2.71-.91.96,1.07,9.54.58,11.02-.45,1.36-2.02,1.29-3.22,1.08-.16-2.63-.66-5.82-.75-8.36-.18-5.21,2.24-9.85-3.97-11.83-.26,1.98-2.16,2.99-3.35,4.38,6.85,2.03,1.89,2.02,1.42,3.44-.61,1.85.35,4.24-.61,6.82-1.21,3.27-5.83,6.89-9.51,6.26,4.38-4.71,8.57-8.25,7.35-15.51l-11.04,8.76c-.84.41-2.22-2.2-2.22-2.36-.02-.56,8.02-4.7,9.5-5.83,1.02-.78,1.29-1.89,2.1-2.64.97-.89,3.01-.28,3.02-2.99-3.21-1.55-4.78.66-7.36,1.68l-.67-16.19c5.71.3,11.34.74,17.09.71,4.14-.02,5.37-1.73,8.98,2.33-.57,1.37-3.14.83-3.34,1.01h0ZM473.43,304.38c-4.11,4,7.4,4.78,6.51.19-.31-1.6-5.39-1.28-6.51-.19ZM489.91,304.97c-.72-1.11-6.18-2-7.3-1.42v4.04c1.73-.33,4.86.47,6.28.05.35-.11,1.09-2.54,1.01-2.66ZM479.91,309.65c-.44-.59-6.07-1.1-6.58-.65-.35.97-.84,4.02.02,4.56.7.44,6.37-.32,6.61-.59.11-.12.05-3.19-.05-3.32h0ZM489.31,313.66l-.65-4.43c-3.1.63-6.78-.73-6.04,3.75l6.69.68Z"/>
          <path class="st6" d="M429.43,312.47s-.05,0-.07-.02h0s-.08.02-.13.03c.13,0,.27,0,.39,0-.07,0-.13-.01-.19-.02ZM432,309.63h0s0,0,.01.01c0,0,0,0,0-.01ZM429.13,309.05v.11s0-.03,0-.05v-.26c0,.07,0,.13,0,.2Z"/>
          <path class="st6" d="M436.48,327.82l6.35-1.34h5.68c-.92-6.28-4.53-1.67-6.98-1.32-1.4.2-6.37.36-7.06-1.06-.56-1.15,1.05-1.26,1.67-1.32,1.19-.11,7.21.01,7.69-.36l-2.01-2.68c2.07.69,2.83-5.57,2.62-6.33-.63-2.27-6.07.25-8.26-.39-.21-.06-.98-2.92-2.39-3.41l5.34,1.34c.21-1.21-.03-3.86,1.3-4.37,1.27-.49,8.4,1.36,7.99-1.26-.02-.13-1.22-2.3-1.34-2.37-1.4-.82-10.09,5.7-7.27-2.11-6.84-2.88-.57,4.97-6.35,4.07-3.37-.52,1.55-5.92-5.03-4.75-.17.92.23,4.49,0,4.73-.29.28-6.77-.22-8.03,0-.32,3.75,7.95,1.24,8.7,2.01.07.07.04.67.03,1.45,0,.04-.01.09,0,.14v.24s0,.03,0,.04c0,.01,0,.03,0,.04h0s0,.03,0,.03v.26s0,.04,0,.05h0c0,.06,0,.08.03.12.05.07.13.09.22.1.73.1,1.46.19,2.2.23.14.02.27.02.41.03h0s.01,0,0,.01c0,0,0,0,0,.01.32.34.65.81.81,1.11.24.44.26.99.07,1.46-.07.15-.16.3-.31.37-.16.09-.36.06-.54.03-.06,0-.13-.02-.19-.03h0c-.11,0-.2,0-.31,0-.57-.03-1.14-.06-1.72-.09-.07,0-.13,0-.19-.01h0c-.13,0-.26,0-.4,0h0c-1.28.25-3.85.2-4.07.55-.18.29-.45,6.42-.05,6.7l7.35-.67c-.6,4.49-8.05-.12-10.03,3.37h9.37c.27.78-.3,2.7-1,2.7h-10.7c-.11,0-1.06.91-1,1.35h9.7c.1,0,1.76.82,1.67,1.01-4.73,5.36-14.46,12.54-12.11-.68.34-1.91.74-4,1.11-5.82.88-4.29,2.38-8.54,3.64-12.72-3.06-.54-1.57.92-2.16,2.85-.85,2.75-2.31,5.15-3.22,7.57-.6,1.6-1.47,6.84-2.13,7.63-.55.67-2.42.71-2.52.84-.41.55,1.55,2.87,1.73,3.99.56,3.53-2.48,5.4,4.55,4.7,6.12-.62,11.52-4.22,14.79-9.36,1.47,1.11.83,3.24,1.86,4.53.27.33,6.66,4.45,7.14,4.6,2.75.84,4.91.15,6.7-2.06-4.49-2.02-9.43-2.6-13.36-5.74ZM435.12,315.01h5.35c.05,2.9-3.37,1.93-5.35,2.02v-2.02ZM435.14,319.06c1.08,0,5.97-.42,6,1,.03,1.29-6.51,2.07-6-1ZM427.12,315.35c.04-1.28,5.13-1.21,5.34-1.01,2.19,2.22-5.42,4.54-5.34,1.01ZM432.34,307.94c-.07-.01-.14-.03-.18-.1-.02-.03-.02-.08-.02-.12,0-.18,0-.39.07-.56.08-.19.1-.17.31-.17.41-.02.82-.02,1.24-.02.83,0,1.68.04,2.5.16,0,.36-.05.72-.15,1.07,0,.05-.03.1-.06.12-.04.03-.09.03-.15.03-1.2-.06-2.39-.2-3.56-.41Z"/>
          <path class="st6" d="M417.06,317.7c-1.59,1.16-6.62-7.09-1.99-5.69,3.01.91,3.87,3.17,1.99,5.69Z"/>
          <path class="st6" d="M417.58,302.41c1.24.54,1.93,3.16,1.5,4.5-1,1.24-5.76-6.34-1.5-4.5Z"/>
          <path class="st8" d="M429.13,308.81h0,0s0,0,0,0Z"/>
          <path class="st8" d="M429.13,309.05c0-.07,0-.13,0-.2v.26s0,.03,0,.05v-.12Z"/>
          <path class="st8" d="M429.62,312.49c-.13,0-.26,0-.39,0,.05-.01.09-.02.13-.03h0s.05.01.07.02c.07,0,.13.01.19.02h0Z"/>
          <path class="st8" d="M432.01,309.65h-.01s0-.01,0-.01c0,0,.01,0,0,.01h0Z"/>
          <path class="st8" d="M429.13,308.77s0,.03,0,.04h0s0-.04,0-.04Z"/>
          <path class="st8" d="M429.14,308.73s0,.03,0,.04v-.04h0Z"/>
          <path class="st8" d="M429.13,309.05c0-.07,0-.13,0-.2v.26s0,.03,0,.05v-.12Z"/>
          <path class="st8" d="M429.13,309.04h0v.06s0,.03,0,.05v-.11h0Z"/>
          <path class="st6" d="M429.14,308.82h0s0-.04,0-.04c0,.01,0,.03,0,.04Z"/>
          <path class="st6" d="M429.14,308.49v.24s0,.03,0,.04v-.04c0-.08,0-.16,0-.24Z"/>
        </g>
      </g>
    </g>
  </g>
</svg>