<?xml version="1.0" encoding="UTF-8"?>
<svg id="Layer_1" xmlns="http://www.w3.org/2000/svg" version="1.1" viewBox="0 0 81.32 81.11">
  <!-- Generator: Adobe Illustrator 30.4.0, SVG Export Plug-In . SVG Version: 2.1.4 Build 226)  -->
  <defs>
    <style>
      .st0 {
        fill: #0a0a08;
      }

      .st0, .st1, .st2, .st3 {
        fill-rule: evenodd;
      }

      .st1 {
        fill: #daca2c;
      }

      .st2 {
        fill: #22244e;
      }

      .st3 {
        fill: #c0242a;
      }
    </style>
  </defs>
  <path id="Fill-302" class="st2" d="M66.88,20.98L79.64-.26l-71.05-.06,12.06,22.56c9.84-2.29,26.03-5.22,46.23-1.26h0ZM58.36,30.1c0,.3.26.11.9-.3,2.35-1.4,3.71-1.2,5.73-.53.45.15.72-.33.24-.73-2.39-1.98-5.34-.72-6.87,1.56h0ZM65.58,28.09c.24-.08.17-.43.11-.88-1.06-1.48-3.68-1.02-4.62-.73-1.09.36-1.36.22-2.1-.12-.61-.11-.7.04-.85.33-.13.26-.15.75-.19,1.61-.04.72-.01,1.06.24.83.97-.87,2.09-1.97,3.73-2.04,1.98-.08,3.68,1.03,3.68,1h0ZM65.24,31.78c.26-.55.23-1.04-.17-1.04-.31,0-.4.25-.49.78-.16.94.23,1.12.66.26h0ZM60.34,32.35c-.33-.99-.19-1.35-1.04-.91-.65.34-1.04.7-.12,1.14.81.35,1.37.39,1.16-.23h0ZM64.25,30.67h-.64c.02,2.22-1.94,2.84-2.66.18l-.57.13c.76,3.76,4.24,2.04,3.87-.31h0ZM67.33,44.38c.24-.85-.2-4.25-.75-5.44-.22-.48-.62-.52-.57.03.01,1.18-.12,3.41,0,4.07.6,1.39,1.06,2.27,1.32,1.34h0ZM66.28,35c-.15-.08-.14-.02-.21.02-.22.16-.07.96.44,2.2,1.36,2.21,1.52,6.51,1.43,8.12-.02.49-.07.76.07,1.2.15.42.4.91.81.09.45-3.18.09-6.51-1.12-9.21-.42-.96-.84-1.89-1.42-2.42h0ZM29.24,48.09c1.67-1.73,2.92-3.97,3.83-6.76,1.98-6.27,3.62-13.47,4.21-19.1,0,0-1.42-.15-1.74.15-.23.22,0,.42-.62,4.54-1.02,6-2.5,11.96-4.65,17.12-.88,2.09-1.13,2.35-1.75,3.43-.87,1.53-.55,1.92.72.62h0ZM10.1,52.01c1.14-.15,2.59-1.07,3.64-2.51,2.15-2.83,3.64-6.06,4.74-8.57.88-2.02,2.48-6.39,2.91-7.97.92-3.36,1.42-5.53,1.84-7.93.04-.22.07-.57.01-.69-.45-.12-1.45-.05-1.75.26-.55,3.86-1.83,7.72-2.76,10.94-1.57,5.47-6.05,14.22-8.5,14.63-1.31.22-2.82-.93-2.57-2.11.14-.73.24-1,.6-1.18.85-.31,1.34.28.41.66-1.08.95.86,2.4,2.06,1.39,2.03-1.72-.95-5.01-3.39-3.5-2.7,1.67-2.01,4.58-.31,5.95.86.7,1.85.8,3.07.63h0ZM65.3,53.02c.6-.64.66-1.4-.01-3-.19-.46-.28-.71-.5-.65-.47.14-1.02,1.38-.69,2.44.42,1.38.67,1.78,1.2,1.21h0ZM11.46,53.76c3.91-.85,7.43-7.17,9.65-12.82,2.02-5.68,4.17-11.93,4.51-17.13,0,0-1.47.06-1.65.37-.17.3-.25.96-.4,1.89-1.02,4.79-1.83,8.43-3.61,12.93-1.23,3.13-2.58,6.67-5.92,11.42-1.1,1.33-2.35,2.15-3.93,2.38-.4.05-1.08-.02-1.25.1-.3.21-.03.69.74.89.7.17,1.4.06,1.86-.03h0ZM65.99,54.91c1.66-.96,1.82-2.61.7-5.61-.46-1.23-1.03-2.1-1.34-2.11-.13.79-.24,1.21-.1,1.51.13.29.35.72.5,1.09.95,2.21.7,3.49-.22,4.18-.85.65-.31,1.19.46.94h0ZM61.56,58.35c.31-.59-.07-2.03-.27-2.98-.19-.52-.4-.65-.75-.57-.51.13-.49.7-.3,1.64.38,1.9.59,2.14,1.32,1.91h0ZM61.96,60.49c1.45-.67,1.74-1.86.96-4.73-.14-.51-.3-1.12-.36-1.35-.16-.71-.48-.79-.9-.22-.25.33-.02.41.36,1.99.59,2.38.25,3.17-.63,3.16-.78,0-1.39-.65-1.61-2.2-.07-.52-.18-.88-.31-1.1-.21-.35-.47-.29-.67.11-.27.5.23,2.59.89,3.6.73,1.02,1.22,1.22,2.27.74h0ZM95.91,19.42l-4.93-4.63-4.88,4.56c-.03,21.77.12,66.45.12,66.45l4.85.35s.36-1.01-.1-3.65c-.68-3.95-.64-8.78.46-16.13.68-4.5,0-8.41-1.03-12.52-.9-2.75-.93-5.28-.77-7.74.35-3.91,1.41-6.86,1.54-12.49.08-3.2-.07-6.34.04-10.3.05-.53.27-.46.31.08.15,3.58.29,6.99.32,10.48-.1,4.55-1.21,9.23-1.33,13.39-.09,2.88-.14,3.88,1.07,7.39,1.9,5.52.65,13.99.63,14.15-.81,5.43-1.39,12.37,1.33,17.57l2.63.24-.26-67.2h0ZM99.12,86.36V0h-18.21l-14.46,22.94-.02,5.63c0,.2.33.32.54.08.82-.65.51.03-.44,1.48-.95,1.46-.66,2.67.38,4.23,2.22,3.32,3.37,9.4,2.43,12.62-.36,1.21-.44,1.7-.2,2.38.26.78.42,1.19,1.19,1.7.67.46,6.17,2.62,15.02,8.36l-.04-40.48,5.58-5.39,5.89,5.68.21,66.84c0,.7,2.13,1.34,2.13.29h0ZM65.61,114.16c3.11-3.25,3.38-7.06.47-7.93-1.61-.49-4.19.69-4.2,1.9-.01.76.14.89.79.62,2.75-1.03,4.93,1.64,2.4,4.69-.61.89-.69,1.11-.52,1.3.21.21.38.13,1.06-.58h0ZM76.49,116.98c-.19-.58-1.59-3.07-1.89-2.99-.31.64-.33,1.48-.71,2.16-.52,1.02-.45.86,1.19.85,1.22,0,1.37.17,1.41-.02h0ZM70,119.23c3.7-2.16,5.11-5.24,3.2-7.29-1.73-1.84-4.59-.77-7.24,2.58-1.22,1.54-.3,1.34,1.34-.12,1.91-1.7,4.34-.88,4.33,1.25-.01.9-1.28,2.43-2.49,3.14-.37.22-.43.56-.29.78.14.23.44.08,1.15-.34h0ZM79.68,124.92c.1-.77-.76-3.43-1.13-2.81-.1.16-.44.91-.88,1.3-1.26,1.14-1.02.71.23,1.05.7.2,1.68.69,1.78.46h0ZM73.51,124.96c3.66-1.26,5.36-3.23,4.53-5.43-.99-2.59-4.18-2.62-7.39-.21-1.5,1.11-1.27,1.52.18.96,1.88-.87,3.09-1.01,3.87-.32,1.39,1.26.45,3.44-1.66,4.22-1.03.43-1.36.67-1.36.98,0,.49.19.37,1.83-.2h0ZM77.21,131.29c2.24-.71,3.43-1.8,3.18-3.61-.38-2.67-2.59-3.23-6.73-2.19-1.99.5-2.17,1.44-.28.96,2.39-.62,4.26.31,4.01,2.07-.15,1.52-1.36,2.41-3.49,2.41-1.12,0-1.47.1-1.32.51.1.28,3.7.15,4.63-.15h0ZM80.48,130.46c-.69.45-1.27.92-2.16,1.32-.53.24-.55.3.18.7.35.19.92.55,1.14.79.38.41.84.57,1.01.42-.02-.65.2-2.8-.17-3.23h0ZM70.61,138.31c1.93-4.38,2.95-15.86-8.11-24.16l.37,2.3c6.52,5.75,8.08,13.08,6.73,19.8l1.01,2.06h0ZM78.86,138.75c1.72-1.03,2.1-3.74.5-5.03-.38-.3-1.05-.71-1.85-.96-1.63-.5-3.98-.72-4.84-.46-.18.22-.19.56,0,.67.23.09.67.14,1.29.21,2.4.24,3.58.96,3.46,2.67-.12,1.77-1.52,2.44-4.04,1.89-1.36-.3-1.99-.16-1.45.16.65.38,2.05.88,3.42,1.15,1.17.21,2.51.29,3.51-.3h0ZM79.03,141.88c.22-.9.54-1.66.69-2.18.22-.82-.06-.63-.59-.5-1.38.72-2.37.33-1.7,1.32.75,1.32,1.36,2.34,1.6,1.36h0ZM76.76,145.68c2.5-1.74,1.47-4.87-1.82-6.03-.39-.13-.82-.3-.96-.36-1.51-.74-2.69-.96-2.69-.39,0,.34.45.51,1.9,1.22,2.15,1.06,2.63,2.27,1.58,3.81-.77,1.11.66,2.37,1.99,1.75h0ZM11.02,150.92c.37-.38.35-.21-.08-1.55-.49-1.53-.75-1.85-1.27-1.32-.33.32-.16.67.21,1.93.43,1.45.54,1.53,1.14.94h0ZM9.61,152.01c.29-.29.04-.71-.5-2.34-.46-1.4-.25-2.36.63-2.64,1.25-.31,1.7,1.77,1.96,2.64.14.68.58.86.97.39.11-.13.14-.24-.04-.97-.82-3.22-1.88-4.24-3.59-3.44-1.58.74-1.38,2.4-.23,5.9.16.46.26.81.37.86.09.04.27-.24.43-.4h0ZM7.06,155.97c.73-1.48.04-3.4-.96-2.74-.65.42-.68.87-.28,2.1.48,1.5.77,1.6,1.24.64h0ZM6.03,158.87c.04-.19.12-.91.15-1.06.03-.15-.28-.58-.62-1.44-.87-2.24-.89-3.18.06-3.83.31-.18.63-.19.67-.39.08-.33.07-.87-.12-1.02-1.36,0-1.99.81-2.23,1.57-.36,1.2.02,2.96,1.09,5.15.51.68.78,1.92,1,1.02h0ZM5.46,161.4c.27-.48.16-.98-.41-2.11-2.27-4.46-2.56-7.5-.19-8.61.26-.12.43-.15.6-.24.75-.42.47-1.18-.65-.87-3.08.87-3.69,3.78-1.09,9.16,1.32,2.69,1.53,3.06,1.74,2.67h0ZM5.13,167.56c-.06-1.21.2-3.89.07-4.48-.17-.77-.63-1.47-.88-1.65-.4-.29-.5.26-.36,1.7.32,3.38.86,5.94,1.17,4.43h0ZM5.16,171.03c0-.31-.14-.81-.28-1.11-1.06-2.18-1.64-4.76-1.52-7.96.08-2.3.11-3.01-.36-3.01-.66.32-1.05,4.59-.21,8.15.59,2.51,2.41,5.63,2.37,3.93h0ZM12.21,174.45c.92-.52.6-1.16-.64-1.4-.81-.2-.76.47-.34,1.38.21.45.35.37.98,0h0ZM10.24,174.89l.62-.05c-.32-2.79-3.31-2.91-3.87.27l.48.08c.62-2.54,2.43-2.47,2.77-.3h0ZM6.57,174.94c.37-.27.46-1.38.17-1.44-.3-.07-.73.48-.84.93-.12.6.32.75.67.51h0ZM10.05,177.97c.96-.32,1.94-.84,2.49-1.63.52-.76.51-.87.11-.72-1.95.97-3.23,1.46-4.98,1.19-2.37-.36-2.46-.06-.9.93,1.02.65,1.87.67,3.28.23h0ZM11.68,179.01c.69-.06,1.14.07,1.34-.11.2-.19.13-.68.19-1.32.14-1.35,0-1.28-.84-.4-1.39,1.45-3.92,2.01-5.43,1.13-.76-.44-1.29-.75-1.36-.38-.08.43.03.76.36.98,1.82.84,3.56.27,5.74.1h0ZM42.56,182.78c.47-4.92,1.98-9.44,3.25-13.96,1.55-5.53,3.62-9.6,6.04-13.27.77-1.17,1.69-2.27,2.55-3.39.12-.14.23-.38.2-.48-.56-.1-1,.08-1.43.32-.6.34-1.45,1.2-1.94,1.83-3.44,4.43-5.29,9.59-7.01,14.81-1.65,5.01-2.84,9.83-3.07,14.37l1.41-.23h0ZM38.06,183.49c.74-8.54,3.86-20.07,8.54-27.58.44-.72.98-1.34.96-1.59-.06-.73-1.87.53-3.26,2.69-1.56,3.12-3.13,6.45-4.32,10.14-1.69,5.2-2.92,10.01-3.4,16.54l1.48-.2h0ZM35.79,183.78c.31-3.52,1.06-9.48,3.38-16.41.97-2.91,2.15-6.25,3.81-9.24.66-1.04.7-1.45,0-1.07-.45.24-2.48,2.54-2.75,3.13-3.11,6.62-4.55,14.57-5.69,20.64-.26,1.37-.33,3.06-.33,3.06l1.58-.11h0ZM99.12,206.68v-69.86c-17.43,12.11-25.05,14.52-33.24,17.49,2.74,5.63-3.29,10.45-6.75,4.73-3.57,4.04-8.47,18.17-8.65,22.86,0,0,9.48,16.54,14.1,24.78h34.54ZM53.44,28.32c-.06-.12-.33-.91-.4-1.2-.08-.29-.15-.59-.23-.59-2.03.32-3.81-.06-4.29-.17-3.07-.74-6.03-.59-8.24.28-.54.22-1.21.56-1.28.62-.17.17-.43-.02-.43-.23,0-.24,1.36-1.32,2.21-1.75,2.61-1.3,5.36-1.52,8.37-.71,1.97.77,3.23.64,4.49.09.62-.28.18.4-.02,1.29-.13.62.02,1.15.04,1.5.08.85-.01,1.27-.22.87h0ZM40.77,30.74c4.37-1.99,6.03-2.25,7.8-1.76.41.12.78.35,1.01.34.85-.05.31-1.02-1.22-1.57-1.74-.63-2.85-.34-6.2,1.42-1.96,1.04-3.56,2.56-1.39,1.57h0ZM49.62,32.23c.65-.4.79-.67.36-1.1-.55-.57-.83-.28-1.01.62-.15.77-.04.9.65.48h0ZM44.76,32.61c-.24-.42-.52-1.39-.78-1.4-.71-.03-1.69.1-1.46.54.37.7,2.53,1.35,2.24.86h0ZM48.73,30.63h-.6c-.69,2.12-1.96,2.84-3.01.3l-.48.05c-.02,2.15,3.64,3.5,4.09-.35h0ZM46.21,35.85c1.21-.76,2.38-1.43,2.8-1.88.22-.24.83-1.04.36-.8-2.48,1.51-5.35.26-7.44-.77-1-.47-.75-.26-1.52-.21-.52.04-.94.15-1.03-.23-.04-.17-.33-.1-.52-.12-.77-.07-.28-1.1,1.33-2.23,1.91-1.34,3.57-2.21,5.22-2.57,1.72-.38,3.47-.17,4.75,1.08.49.48.45.8.9.51,1.03-.68,1.04.22.17,1.04-.59.56-.38.72.35,1.26.35.26.06.5-.13.87-.07.23-.02.48-.05.66-.16.8-3.79,3.65-5.11,4.13-.9.17-.43-.51-.08-.74h0ZM60.78,45.83c-1.05-.27-1.95-.68-3.04-.88-1.08-.19-1.57-.76-1.37-1.52.2-.8,1.28-.88,2.9.12,1.8,1.11,3.1,1.38,3.76.96,1.33-.85.62-2.22-.65-2.57-.96-.27-.26-.65.77-.34,1.65.63,1.69,3.65,0,4.28-.57.21-1.58.15-2.36-.05h0ZM44.04,44.96c-.93-1.88,1.21-4.37,3.09-3.49.62.29,1.18,1.4.26.89-4.28-.87-3.21,5.45,1.38,2.11,3.05-2.05,5.21-2.36,5.39-.38-.08.72-.72.61-1.21.67-1.26.18-1.73.39-3.2,1.02-2.23.71-4.41,1.29-5.71-.82h0ZM48.81,48.51c.05-.12.19-.47.32-.95.19-.71.14-1.24.31-1.15.71.39,1.99.4,2.62.01.68-.42,2.07-.55,2.58-.21.72.47,1.09.25,1.59-.15.58-.45.58-.26,1.62.11.76.26,1.06.45,1.39.39.12-.03.37-.31.45-.3.25.05.28.76.51,1.57.2.72.08.89-.55.46-.48-.32-1.84-.47-3.26-.03-1.05.32-1.29.19-2.06.06-1.92-.33-3.3-.58-4.73.26-.77.44-1.04.68-.79-.07h0ZM53.87,50.31c-.36-.19-2.08-.88-1.83-1.44.03-.06.13-.01.18.02,1.58,1.07,3.54,1.34,5.58-.14.34-.31.6-.1.41.28-.62,1.24-3.37,1.77-4.34,1.28h0ZM38.82,56.11c-.83-.52-1.17-1.82-.68-2.88.45-.88,1.6-4.23,2.14-4.42.86-.03.4.7-.67,2.77-1.28,2.73-1.23,3.46-.25,3.88.91.38,1.34-.41,2.68-3.6.21-.51.51-1.03.68-.92.21,0,.58.15-.12,1.6-.17.34-.45,1.07-.77,1.74-.91,1.98-1.95,2.49-3.01,1.83h0ZM38.66,58.24c-.4-.08-1.09-.6-1.57-1.05-1.64-1.51-1.37-3.6.66-7.53.16-.31.75-1.5.94-1.89.34-.7.67-.42.67.04,0,.13-.51,1.22-1.02,2.22-2.24,4.42-2.17,6.23.01,7.28,2.13,1.03,3.08.44,4.77-2.94.98-2.53,1.46-2.57,1.41-1.61,0,.36-1.19,2.79-1.95,3.92-1.11,1.63-2.07,1.92-3.92,1.56h0ZM47.34,60.11c-.26-.59-.23-1.19-.09-1.75.31-1.27.81-2.5,1.41-3.56.96-.46.22,1.36.1,1.63-1.15,2.44-1.26,3.38-.18,3.67.92.24,1.42-.33,2.29-2.52.45-1.12.63-1.62.79-1.68.34-.14.5,0,.48.34-.58,1.43-1.03,2.94-1.98,4.14-.93.78-2.33.79-2.82-.27h0ZM34.3,52.7c.42-.45.79-1.19,2.29-4.31.27-.56.7-1.42.87-1.82.23-.74,1.07-1.19.66.12-.09.28-.25.67-.51,1.17-.5.91-.97,2.03-1.33,2.75-1.92,3.9-1.83,6.17.32,7.86,1.6,1.55,4.98,1.73,6.77-.78.27-.4.51-.92.59-1.11.78-1.91,1.35-2.87,1.5-3.06.8-1.02.93.25-.27,2.2-1.36,2.24-1.39,4.66-.21,6.37,1.76,2.53,5.08,2.6,7.17.57,1.09-1.28,1.95-2.92,2.64-5.01.16-.46.32-.81.43-1.08.17-.42.42-.57,1.07-.7,4.45-.86,8.18-5.47,8.71-10.5.06-.68.26-1.88.33-2.6.14-1.42.14-8.81,0-9.25-.08-.24-.21-.36-.5-.36-.22,0-.54.08-.99.24-1.46.53-2.15.67-3.55.16-.47-.17-.79-.23-.98-.21-.62.05.2.95,2.01,1.95.78.42,1.39,1,.76.96-.18-.02-2.36-1.16-2.67-1.34-.99-.62-.73.16-.22,2.2.69,2.74.29,3.51-1.85,4.59-.4.2-.93.61-1.2.88-1.14,1.7-.84.45-.27-.45.98-1.04.38-1.39-1.63-.67-2.28.81-3.32.22-3.96-1.07-.72-1.45.64-3.32,1.78-3.28.36.01.3.15-.25.52-.65.45-.96.88-1.03,1.65-.13,1.57.98,2.24,2.53,1.19.74-.5,1.31-.84,1.87-.97.55-.13,1.38.08,1.37.53,0,.18-.02.63.02.73.14.5.93-.21,1.27-.46,1.17-.88,1.13-1.06.81-2.49-.52-2.01-.78-3.84-1.28-5.87-.27-1.07-.31-2.27-.15-3.36.08-.54.29-1.66.33-2.43.05-.76,0-1.86.03-1.86,1.16.9,1.63,1.06,2.77.62,1.75-.72,2.86-.65,4.34.06.55.27,1.04.46,1.04.46l.07-2.31s-1.37-.28-3.9-.62c-7.61-1.01-23.24-1.22-23.82-.29-.15.23-.3,1.88-.71,4.17-.92,4.75-1.96,9.49-3.34,14.13-.28.94-.55,1.32-.41,1.35.06.01.35-.36.48-.51.74-.86.17,1.19-.95,3.66-.1.22-.18.47-.18.54,0,.15-.71,1.87-1.19,2.91-.3.65-.55.84-.55.43.34-1.42,1.24-3.26,1.37-4.53-.79,1.15-1.93,3.04-2.8,4.17-.16.31.01.4.15.78.52,1.41,1.78,1.53,2.51.26.41-.71,1.67-3.39,2.11-4.56.45-1.2.77-1.84.92-1.92.3-.15.36.53-.17,1.67-1.63,3.46-2.33,5.39-3.13,6.11-.61.55-1.68.52-2.28-.47-1.01-1.67-1.87-1.12-.94.6.95,1.77,3.14,1.94,4.28.34.37-.53,2.14-3.94,2.7-5.33.31-.77.64-1.38.75-1.42.6-.23-.08,1.54-1.79,5.08-.55,1.37-1.44,2.8-2.64,3.25-2.92.64-3.32-.92-4.34-2.7-.49-.44-.94.27-.75,1.05.31,1.27.88,1.77,1.77,2.4,1.85,1.19,4.42.38,5.35-.98h0ZM-4.65,55.27c3.68-1.73,6.2-2.6,9.94-3.71.51-.23.59-.28.05-1.35-2.37-4.75,4.14-8.53,6.36-3.88.29.63.36.97.65.67.54-.72,1.19-1.74,1.86-2.91,2.5-3.9,3.62-8.35,4.95-12.28.55-2.3,1.32-4.71,1.54-7.19C15.76,15.93,7.07,0,7.07,0H-27.66v69.68c9.67-8.16,16.25-11.11,23.01-14.41h0ZM19.68,143.23c-1.91,1.17-3.86,6.82-3.86,6.82-6.68.8-9.47,7.43-9.77,12.95-.24,4.37-.53,9.46-.09,9.9,4.37-1.98,6.06.31,6.47-.31.19-.27-.97-1.16-2.42-1.96-.34-.19-.87-.53-1.07-.69-.53-.45,1.06-.06,2.07.63,1.28.88,1.5.7.94-1.88-.6-2.8-.7-3.15,1.43-4.26.86-.44,1.34-.82,1.95-1.51.49-.55.62-.69.44.13-.32,1.4-1.56,2.02-2.67,2.59-.56.29-.79.87-.79,1.36s.57,3.25.84,4.12c.25.83.34,1.67.53,2.51.5,2.2.53,2.63.28,4.23-.15.94-.23,1.47-.18,2.04.05.51.12,1.21.12,1.21,0-.03-1.19-1.24-3.8-.2-1.89.75-3.38-.03-4.43-.59-.25.87-.19,1.81-.16,2.81,10.87,2,20.15,1.73,27.96.91.2-2.34,1.19-9.75,3.26-16.44.86-2.78,1.83-5.72,2.93-7.68.75-1.33,1.51-2.23,1.78-2.39.09-.05.1-.07.09-.11v-.21c-.02-.43-.13-1.1-.5-1.4-.9-.73-2.34.21-2.81,1.83-.41.97-2.31,5.17-2.44,5.09-.11-.07-.38-.07-.28-.4.72-1.7,1.72-3.5,2.28-5.02.77-2.2,2.46-3.36,3.71-1.98.43.48.61.92.81,1.07.14.11.35.03.47-.15.47-.73-.63-2.36-1.81-2.69-1.7-.48-2.97.78-4.9,4.84-1.11,2.35-1.31,2.94-1.49,2.76-.04,0-.33,0-.22-.44.22-.98,1.7-3.82,2.78-5.62,1.58-2.67,4.52-2.88,5.76-.57.19.32.2.73.41,1.01.38.5,1.01.4,1.16-.42-.17-.53-1.2-2.48-1.92-2.82-1.66-1.15-3.67-.93-5.36.6-.38.34-.78,1.05-1.9,3.35-1.65,3.68-1.7,3.7-2.15,3.1.66-1.79,2.41-4.7,3.12-6.49.13-.27.16-.55.15-.83-.04-1.3.17-3.6-2.55-5.23-2.33-1.26-5.39.06-6.44,2.55-.8,1.91-1.38,3.21-1.78,3.49-.57.37-.46-.15-.41-.35.81-1.72,1.94-3.46,2.12-5.2.12-4.69-4.6-6.43-7.66-4.06h0ZM69.71,108.52c-1.24-1.01-.78-.89-1.14,1.37-.21,1.37-.48,1.4.92.95.79-.28,2.43-.1,1.69-1.04,0,0-1.22-1.07-1.47-1.28h0ZM63.36,104.43c-1.61-.83-1.57-.82-1.58.76,0,1.17.03,1.46.46,1.3.64-.32,1.41-.62,1.99-.87,1.12-.39-.3-.88-.87-1.19h0ZM-13.89,147.12l-.03,39.71-5.97,5.65c-2.56-2.21-5.93-5.68-5.93-5.68l.11-67.13-1.92-.15c-.47,28.84-.01,58.26-.03,87.16H-10.14l14.6-23.03s.19-.27.25-.42c.18-.44.15-1.11.07-3.55-.04-1,.07-1.76-.07-1.99-.15-.24-.46-.07-.75.06-.3.14-.48.09-.32-.27.09-.19.39-.63.64-1.05.82-1.36,1.02-1.79.74-3.3-.07-.37-.4-.68-.7-1.12-2.45-3.66-3.46-9.08-2.23-13.06.38-1.76.24-2.11-.6-3.48l-15.38-8.35h0ZM8.73,143.57c-3.12.8-3.22,4.57-1.15,9.38.16.37.13.57.29.71.36.31.64-.13.68-.41.06-.44-.13-1.03-.46-1.89-1.28-3.33-.98-5.25.3-6.1,3.26-1.69,4.13,1.79,4.63,3.39.12.39.16.92.37.95.65.09.96-.14.95-.14,0,0-.86-3-1.39-4.12-.85-1.82-2.88-2.2-4.22-1.77h0ZM60.14,151.97c-8.63,1.14-14.26,27.81-14.45,30.03,0,.03-.04.2-.04.2l1.72-.35s.02-.09.03-.13c1.18-6.82,2.33-11.59,5.02-17.75,2.1-4.57,4.99-10.41,9.31-10.97.35-.05.68.09.56-.32-.27-.65-1.56-.74-2.15-.71h0ZM55.72,151.95c-3.96,3.26-7.11,10.39-9.19,16.97-2.25,7.13-3.26,13.65-3.09,13.65l1.57-.23c-.12-.42,4.41-25.51,12.81-30.07.73-.37.88-.74.26-.9-.94-.13-1.7.18-2.36.58h0ZM48.98,153.39c-3.05,3.86-4.56,7.82-6.43,13.23-1.87,5.41-3.21,10.7-3.79,16.77l1.64-.22c-.06-3.9,4.18-22.48,10.14-29.43.34-.44.61-.81.58-.91-.33-.94-1.74.19-2.14.56h0ZM62.38,153.65c-2.54-.01-4.71,2.45-6.63,5.54-4.1,6.34-6.85,16.93-7.52,22.56l1.54-.3c-.23.11,2.89-14.98,7.65-21.44,2.57-4.07,2.46-4.14,3.9-4.51,1.83-.47,3.29,1.52,2.39,2.72-.33.4-.69.1-.59-.47.32-1.85-2.35-2.2-3.09-.39-.86,2.08,1.42,3.94,3.65,3.12,1.99-.71,2.83-3.51,1.43-5.59-.72-.7-1.76-1.32-2.73-1.24h0ZM15.87,53.78c3.39-1.91,7.37-10.84,10.61-22.05.56-1.92,1.57-8.34,1.57-8.34,0,0-1.35.05-1.61.33-.26.39-.22,1.38-.6,3.73-1.46,7.09-3.66,13.56-6.97,19.95-1.43,2.83-3.81,5.5-5.31,6.26-.84.43-1.08.89-.47.93,1.04.04,1.13.25,1.88-.15l.9-.66h0ZM18.17,54.11c1.5-.86,4.15-4.59,6.02-8.62,2.1-4.75,3.86-10.12,5.01-14.77.5-2.04,1.21-7.13,1.11-7.46-.12-.4-1.59-.07-1.39.21,0,0-1.46,8.18-3.03,12.68-2.92,8.37-5.44,14.05-8.16,16.78-.35.36-1.05,1.06-1.05,1.06,0,0,0,.31.24.36.54.1.9-.06,1.25-.24h0ZM22.85,51.85c3.08-4.26,5.27-9.37,6.96-15.4,1.08-3.9,2.02-7.86,2.59-11.88.12-.86.21-1.44.04-1.69-.41-.12-1.19-.05-1.46.16-.16.25-.05.75-.2,1.91-.4,3-.99,6.01-1.98,9.95-2.62,8.71-5.04,13.59-8.2,17.86-.26.36-.49.6-.46.75.03.22.34.2.84-.11.66-.52,1.41-.98,1.87-1.55h0ZM26.14,50.15c.96-1.08,3.08-4.82,3.73-6.78,2.01-5.83,4.11-12.54,4.7-18.75.06-.78.1-1.97.14-2.07-.16-.17-1.15-.08-1.49.09-.16.21-.05.67-.11,1.28-.89,6.97-2.55,13.32-5.01,19.79-1.07,2.81-2.07,4.66-3.36,6.62-.23.34-.52.69-.63.89-.33.47-.09.78.29.58.68-.38,1.26-1.12,1.74-1.65h0ZM68.97,51.19c-.03-1.41-2.97-7.51-3.17-6.87,0,0-.01,1.43.1,1.99.04.22.2.41.32.64,2.56,4.59,2.17,7.82-.05,8.53-.76.34-.92.68-.58,1.04.68.75,2.39-.73,2.73-1.27.84-1.2.72-3.4.65-4.06h0ZM58.86,61.67c.87.84,2.35,1.26,3.31.96,2.35-.83,3.42-3.07,2.53-6.67-.45-2.02-.84-3.28-1.23-3.53-.19-.12-.4.11-.58.39-.16.25.09.6.35,1.55,1.13,4,.84,5.81-.54,6.58-1.99,1.11-3.7-.17-4.28-3.03-.09-.44-.36-1.34-.36-1.34-.16-.39-1.39-.31-.94,1.02.13,1.03,1.07,3.48,1.74,4.07h0ZM48.09,62.85c-1.78-.44-3.01-2.53-2.55-4.54.26-1.13,1.32-3.8,1.52-3.97.79-.63.69.21-.04,1.66-.66,1.49-1.17,2.68-.97,3.56.29,1.26.8,2.22,2.1,2.54.91.22,1.77-.16,2.35-.58.77-.54,1.5-1.95,2.38-3.89.27-.55.65-2.23,1.11-1.2.23.53-1.63,4.06-2.33,4.95-.87,1.13-2.35,1.79-3.57,1.47h0ZM-7.4,66.7c1.57-.74,2.7-.32,1.5-1.34-.67-.63-1.25-2.41-1.72-.9-.36.9-.62,2.5-.63,2.65.11.11.08-.07.85-.41h0ZM-.08,66.96c0-.17-.15-.3-.49-.43-.5-.2-.83-.24-1.95-.99-1.49-1.02-1.94-2.98-.95-4.08.97-1.03-.77-2.24-2.15-1.08-1.44,1.2-1.32,3.09.34,4.58,1.52,1.38,5.19,2.81,5.2,2H-.08ZM-1.2,73.34c0-.34-.55-.39-2.36-.66-2.41-.36-3.49-2.61-2.04-3.96.55-.51,1.87-.73,2.6-.6,1.59.29,2.56.62,2.58.08,0-.49-.46-.52-3.45-1.16-4.51-.96-6.99,3.5-3.38,5.68,1.37.83,6.04,1.3,6.05.62h0ZM-2.69,80.46c1.92-.19,2.12-.38,2.12-.78s-.23-.32-1.2-.19c-2.55.36-4.24-.29-4.61-1.66-.37-1.42,1.36-2.75,3.66-2.67,1.25.04,2.08-.4,1.32-.81-.4-.22-3.83-.17-4.61.05-2.29.67-3.22,1.95-3.01,3.72.32,2.19,1.5,2.81,4.4,2.66.55-.03,1.26-.26,1.93-.32h0ZM-6.74,83.33c.1-.16.37-.53.62-.92,1.08-1.26.17-.88-.78-1.22-.5-.19-1.02-.38-1.31-.33-.57.08.19,1.19.37,1.91.51,1.59.46,1.54,1.1.56h0ZM-1.85,87.99c1.15-.37.89-.29,2.4-1.28,1.74-1.14,1.81-1.76.07-.88-2.24,1.12-4.21.84-4.94-.63-.65-1.31.7-2.95,2.94-3.58.77-.22,1.17-.41,1.17-.74,0-1.03-3.8.34-5.37,1.89-3.03,2.99-.38,6.54,3.73,5.22h0ZM-3.04,90.36c.9-1.73.93-1.54-.81-1.56-1.98-.02-1.75-.26-.64,1.44.9,1.37.75,1.49,1.45.12h0ZM8.88,91.89l-.17-2.61c-2.83-2.46-5.51-6.65-6.44-10.12-.94-3.09-.19-9.52-.05-9.05l-1.53-2.91c-1.33,3.09-1.91,7.81-.46,12.61,1.23,4.07,3.69,9.01,8.65,12.08h0ZM6.07,90.77c.16-.38-.17-.53-.48-.46-.03.01-.57.42-1.21.92-1.94,1.54-3.36,1.72-4.32.55-.97-1.19-.57-2.59,1.61-4.2.96-.71,1.19-.76.73-1.07-.35-.23-.37-.2-1.75.74-2.79,1.9-3.62,3.19-3.34,5.08.06.77.46,1.18.85,1.48,2.65,2.36,6.33-.9,7.91-3.04h0ZM2.54,96.77c-.05-.62.13-1.3.21-1.5.27-.72.26-.81-1.01-.21-.5.16-1.11.3-1.34.3-1.04,0-.78.32.71,1.57s1.54,1.36,1.43-.16h0ZM8.2,99.29c1.02-.64,1.36-.98,1.41-1.71,0-.84-.09-1.14-.82-.56-2.49,1.98-5.05-1.91-2.77-4.06.46-.44,1.05-1.13,1.06-1.31.03-1.25-1.37-.03-2.51,1.69-1.27,1.56-2.06,3.51-.94,5.39.89,1.37,2.86,1.65,4.57.56h0ZM9.67,101.83c.03-.51.09-1.29.08-1.86.1-1.08-.1-.77-.68-.41-.43.28-1.12.71-1.4.84-1.07.54-.94.57.57,1.3,1.27.57,1.41.51,1.43.13h0ZM-9.11,75.38c.74-.28,1.27-.86,2.06-1.3.52-.29.36-.25-.31-.64-.53-.25-1.59-1.33-1.69-1.07-.24.46-.21,2.98-.06,3.01h0ZM92.14,98.17c.49-.26.59-.68.15-1.16-.79-.68-2.17-.15-1.73.84.22.48.98.63,1.58.32h0ZM91.44,101.17c.84-.23,1.1-1.05.52-1.65-.42-.42-1.71-.47-2.06-.09-.89.98.11,2.13,1.54,1.74h0ZM92.37,103.45c.46-.6-.04-1.4-.88-1.41-.59,0-.9.36-.89.82,0,.87,1.39,1.09,1.77.59h0ZM93.5,105.34c-.32-.37-.88-.59-1.2-.44-.29.16-.19.48-.1.73.25.68,1.95.46,1.3-.29h0ZM91.48,105.34c-.72-2.64-2.68-.02-2.69.01-.07-2.71.44-3.91-1.58-4.84,2.03-3.09,1.61-3.51-.54-4.7.2.02,2.85-.58,3.31-2.11.1.07,4.16,1.08,4.67-1.15-1.23.56-3.64.65-3.67-1.75.23-.07.8.05.75.12-.32,1.54,2.47,1.92,2.93.71,0,0,.93.63,1.35.72.04.04-1.27,1.87-2.47,2.15-2.16.72-2.9.91-2.91,1.34,0,.17.35.2,1,.33,1.34.09,1.31.38,1.49.83.15.39.3.47.75.43,1.53-.51,2.3-.78,3.37-1.85.13-.03.28,1.13.36,1.17,0-.19-1.08.13-2.77,1.12-1.37.81-1.91.93-2.09,1.15-.13.16.21.67.24,1.23.03.46-.28.69-.05.84.27.16.68.13,1.22-.01,1.18-.29,2.06-.76,3.13-1.42-.23.43.15,1.53.15,1.53,0,0-.53-.38-.96-.18-.84.37-2.19.87-2.55.96-.36.08-.51.13-.65.25-.17.14-.14.49-.14,1,0,.36-.11.69.12.8.5.16,1.5.11,2.53-.25.44-.19,1.36-.7,1.36-.7l-.29,1.52c-.39-.44-1.5-.12-2.25.18-.38.12-.49.36-.59.69-.16.56.19.95.61,1.14.27.12.69.07.69.07-1.93.74-1.55,1.02-2.68.46-.49-.54-.97-1.1-1.15-1.79h0ZM-22.01,100.43c-.44.21-.46.73-.05,1.05,1.63.91,1.13-1.51.05-1.05h0ZM-19.3,103.76c.07-.82-.74-1.34-1.48-.95-.93.49-.37,1.51.79,1.45q.65-.03.69-.5h0ZM-18.8,107.17c.4-.32.45-1.08.1-1.51-.59-.75-2.13-.3-2.21.64-.09,1,1.27,1.52,2.11.87h0ZM-19.5,109.65c.32-.21.38-.8.1-1.05-.26-.21-1.35-.1-1.66.18-.69.55.58,1.48,1.56.87h0ZM-21.24,114.64c-.47-.52-1.64-.61-2.13-.22-.11.1-.36.6-.43.59-.65-.17-1.1-.31-1.19-.86l.69-1.06c.55-.83,1.34-1.12,2.67-1.44.48-.11,1.19-.21,1.44-.32,1-.43,1.35-1.37.34-.95-.74.2-1.78.14-1.92-.54-.11-.56-.58-.78-1.11-.72-.97.24-1.87.75-2.73,1.27-.38.23-1.11.76-1.11.76-.11.18-.54-1.14-.14-1.53.49.06.91.07,1.39-.12,1.19-.48,2.33-1.06,3.53-1.52.77-.3.84-.28.64-.82-.1-.2-.19-.87-.06-1.22.14-.37.13-.56-.11-.72-.54-.36-1.84-.03-3.66.86-.56.26-.92.37-1.27.66.22-.58.09-.69.08-1.3.75.1,1.42-.2,2.01-.52.49-.25,1.04-.51,2.39-.68.37-.05.2-1.4-.22-1.8-.4-.37-1.23-.38-2.24-.08-.9.21-2.01.42-2.63,1.4-.78.74.02-1.24,1.44-2.03.62-.01,2-.31,2.32-.38.55-.12.64-1.42-.16-1.97-.5-.44,1.82-.45,1.77-.32-.02.08-.05.63.13.77,1,.3.99,1.12,1.08,1.47,1.14,1.89,1.71.71,2.49.05-.16,4.12,1.27,4.59,1.46,4.85-1.97,3.69-.48,3.78,1.36,4.63,0,0-.7.29-1.17.26-.73-.04-2.14.83-2.75,1.35-.34.28-.35.04-1.7,0-1.28-.03-1.37.06-1.96.32-1.14.51-1.14,1-.02.81,1.2-.21,2.37.52,2.51,1.52.09.19,0,.52-.01.51-.25-.05-.81.04-.8-.08,0-.12,0-.57-.23-.88h.01ZM-14.3,146.3s7.49,4.34,15.74,8.6c-.78-4.88,1.71-5.61,4.05-6.18-.56-9.41,8.02-7.48,9.33.7h.84c1.49-4.07,2.96-6.89,6.34-7.56,2.63-.52,5.21,1.15,5.87,5.08-.12-.27,8.69-5.2,8.94,5.21,4-2.5,6.85-.34,8.01,2.83,1.69-2.59,5.91-2.71,7.27-2.89.47-.55,1.3-.86,2.81-.85,1.29-.07,3.03-1.04,3.92.14,1.37.22,2.4-.03,3.56.88.93.7,1.96,2.28,3.5,1.19,2.94-1.42,6.24-2.06,8.87-3.78,0,0-.7-.9-.5-.77.08.05.4.48.9.67.17.08,1.79-.9,1.79-.9-10.94-12.67-19.94-37.42-14-60.31.17-.39-.49-.54-.82-.68.1-.17,1.71.06,1.03,1.52-.69,4.38-1.47,9.14-1.64,12.77,0,.45.03.84.03.84,24.53,11.38,21.52,36.03,15.22,44.61l1,1.33c.43.29,19.29-10.77,18.67-11.22l3.57-1.79-.58-48.32-14.11-1.09s.15-.4.33-.51c.13-2.95-.14-7.31.01-10.97.05-10.43.15-13.98.02-14.27-4.35-2.88-10.84-7.1-16.3-9.14.22.06-.09,4.32-.26,4.57-5.11,1.64-2.74,3.73-4.63,5.98-1.26,1.41-4.23,1.67-5.67-.01-1.71-1.67-2.51-5.49-2.51-5.49-2.71,2.9-2.15,6.42-5.77,7.74-5.82,2.9-7.67-5.78-7.33-5.58-2.23,2.17-8.48,3.92-9.16-5.2-2.81,2.6-5.97,1.31-7.31-1.9-1.71.06-3.64,1.42-5.38,2.15-1.61.72-3.67,1.14-5.2,1.11-1.92.23-3.5.22-5.22-.3-.81.27-2.64-.53-3.21-1.66-.86-1.02-1.61-1.08-2.43-.89-2.8,1.48-5.79,1.83-9.09,3.38-.21.15.29.42.12.37-.07-.03-1.73.82-1.73.82,16.71,22.1,17.62,44.41,14.12,60.23-.14.55-.22.95.14,1.38-.53-.1-.54.06-.63-.28l1.73-13.28c.06-1.6.25-1.48-1.15-2.08-1.29-.55-2.52-1.09-3.59-1.75-4.07-3.03-8.68-6.77-10.92-11.44-6.41-10.02-4.29-21.99.5-31.47l-1.19-1.24c-14.01,7.06-22.28,14.67-22.28,14.67l.06,47.42,14.4,1.67-.08,25.94h0ZM-14.65,120.68l-5.26-.37c.93,5.66.97,11.88.03,16.3-.8,3.77-.81,6.55-.57,9.82.28,3.81,1.88,7.04,2.29,11.08.29,2.92-.36,5.98-.93,8.89-.96,4.87-.77,5.37-.62,11.08.13,5.29-.36,5.1-.67,4.79-.04-.04-.08-.98-.08-2.09,0-1.11-.06-3.84-.12-5.73-.13-3.77.29-7.11.59-8.48.62-2.79,1.31-5.66.88-8.75-.86-3.9-2.08-7.8-2.51-11.56-.53-4.64.77-9.3,1.2-12.67.41-3.25-.03-8.88-.87-11.22-.15-.78-.84-1.79-.84-1.79-.8-.12-1.59-.23-2.71-.22-.06,22.34,0,44.69.02,67.03l4.91,4.58,5.04-4.82.22-65.87h0ZM22.22,150.91c0-.15.23-.59.48-1.2,1.04-2.6,1.05-3.39-.47-3.42-.91.11-1.05.49-1.85,2.53-.26.67-.4,1.14-.55,1.35-.17.21-.48.08-.61-.05-.32-.33,1.1-3.69,1.86-4.32,1.73-1.51,3.97.64,2.92,2.57-.49,1.35-.92,2.26-1.21,2.68-.25.37-.57.32-.57-.14h0ZM23.65,151.77c-.09-.16.09-.37.76-1.81.93-1.98,1.21-2.72.84-3.85-.67-2.02-3.19-2.51-4.72-1.19-.5.43-.84,1.02-1.07,1.55-.55,1.23-1.01,2.82-1.34,3.16-.29.29-.69.34-.66-.16.36-1.07.53-1.9,1.39-3.47,2.15-4.67,8.32-2.51,6.88,2.41-.54,1.78-1.16,3.14-1.53,3.58-.2.24-.54.03-.55-.22h0ZM30.66,156.8c0-.14.17-.68.43-1.2,1.57-3.1,2-3.85,1.52-4.43-.93-1.13-2.17-.15-3.32,3.09-.43,1.21-.72.95-.93.76-.4-.37,1.37-4.13,2.23-4.69,1.93-1.24,3.46.19,2.6,2.72-.67,1.14-1.22,2.9-1.84,3.82-.3.42-.7.29-.69-.07h0ZM12.79,157.08c.33-1.47,5.01-2.15,6.24-.22.12.18.05.18-.48.03-2.38-.79-2.85-.75-5.13.16-.34.13-.59.19-.63.03h0ZM32.25,157.24c.19-.33.46-.78.72-1.29,2.06-4.12,2.2-5.26.75-6.65-1.96-1.86-3.63-1.06-5.51,2.67-.45.9-.73,1.58-.91,1.86-.21.32-.46.07-.58-.05-.23-.24,1.85-4.19,2.67-5.05,2.13-2.26,6.1-.46,5.85,2.61-.13,1.55-.42,2.4-1.83,5.23-.35.7-.65,1.3-.84,1.58-.66.45-.51-.57-.32-.91h0ZM12.32,159.52c-.26,0-.73.25-.86.15-.27-.2-.23-.78-.45-1.39-.38-1.1,0-.75.67-.46.93.36,1.8.29,2.58.02.8-.28,1.86-.22,3.54,0,1.36.18,2.12.13,3.35-.22,1.34-.42.99-.27.76.56-.14.54-.32,1.27-.49,1.44-.93-.52-1.63-.32-2.24.04-.99.44-1.7.51-2.52.27-.77-.44-1.22-.41-1.84-.03-1.06.52-1.54-.34-2.5-.38h0ZM23.98,164.3c-.69-.49-.58-1.23.21-.67,1.02.72,2.68-.59,2.34-1.83-.41-1.5-2.39-1.86-4.04-.52-2.62,2.11-5.48,2.22-5.48.57,0-.47-.06-.58,1.02-.65,1.27-.09,2.69-.67,3.4-1.1,3.18-1.95,6.56-.61,5.86,2.64-.31,1.53-2.18,2.27-3.31,1.56h0ZM36.86,164.79c-.29.13-.42-.5-.3-.84.79-1.86,1.51-3.35,2.22-5.09.57-1.4.95-2,1.2-1.99.26,0,.38.2-.05,1.06-.66,1.73-3.06,7.01-3.07,6.86h0ZM8.01,164.43c-1.57-.72-1.78-3.19-.31-4.16.93-.64,1.89-.81,4.47.47,1.82.9,2.86-.07,2.82.98-.03.64-.07,1.28-1.13,1.44-1.72.25-2.89-2.1-5.1-1.87-1.6.15-1.4,2.07-.25,2.46,1.54.52.61,1.13-.5.68h0ZM18.84,168.53c-.12-.21-.1-.58.37-.8,2.88-1.33.78-4.16-1.44-2.04-.71.58-1.76.85-2.57.5-.76-.33-.77-1.26.24-1.46.33-.07,1.18-.25,1.5-.47,3.86-2.08,5.92,2.44,3.17,3.94-.56.33-1.16.52-1.27.33h0ZM28.26,174.71c.67-.37.57-.63-.29-1.07-.6-.32-.93-.38-1.04-.18,0,.45.03,1.09.29,1.44.27.17.63,0,1.04-.19h0ZM22.94,175.08c.64-2.17,2.06-2.13,3.07-.06h.72c-1.47-4.03-4.32-1.99-4.42.03.34.11.63.03.63.03h0ZM22.04,174.54c.12-.39.21-.91.1-1.08-.19-.31-.6-.08-1.12.58-.33.41-.28.47.04.79.15.11.28.19.37.25.44.19.51-.23.61-.54h0ZM26.05,178.08c1.45-.43,3.22-1.35,4.3-2.31,1.32-1.16.58-.98-.94-.25-2.19,1.06-3.73,1.37-6.2,1.31-2.06-.05-2-.13-2.07.13-.27.9,2.57,1.83,4.91,1.12h0ZM20.58,177.46c-.27-.17-.45-.19-.8-.03-1.35.64-1-.27-.02-1.19.44-.42.43-.63.09-1.07-.17-.22-.46-.25-.39-.59.29-1.43,2.3-3.61,4.55-4.58.93-.4,1.08.04-.1.74-1.82,1.07-2.41,1.98-1.38,1.61,1.99-.72,3.81-.21,6.36,1.07.73.36,1.06.43,1.68.37.46-.39.87.07,1.15.31.18.15.22.22.42.17,1.45-.34.58.58-1.4,2.04-3.55,2.52-7.42,3.71-10.16,1.15h0ZM18.71,180.65c-.73,0-1.54.46-1.39.07.09-.22.29-2.49.38-3.31.22-.36.53.59.49,1.47-.02.5.22.14,1.87.23,1.79.09,3.25.43,3.85.56,2.11.46,6.19.13,7.94-1.15.94-.69,1.3.06.33.8-4.41,3.36-7.9,2.08-11.73,1.51-.57-.08-1.15-.2-1.74-.18h0ZM63.17,207.14c-4.86-8.86-12.54-23.29-12.77-23.4-2.84,1.52-31.78,5.42-45.7,1.64-4.76,7.2-9.44,14.32-13.58,21.45l72.05.31h0ZM-29.54,208.48H101.07V-2.05H-29.54v210.53Z"/>
  <path id="Fill-303" class="st1" d="M19.37,19.33C18.44,17.59,8.98-.54,8.98-.54L79.33-.11l-10.55,17.49c-1,.95-5.96,3.6-11.01-2.4-.1.87-7.51,6.19-13.88-.22-3.83,3.51-7.74,5.54-14.19,1.59-.14,1.1-5.17,6.04-10.33,2.98h0ZM62.66,63.54c-21.45,37.82-12.68,65.8,3.11,89.94,0,0-1.37.32-1.52.18-3.45-3.1-5.87-2.55-7.64-2.58-3.37-.06-4.31.96-6.25,1.15-4.95.5-4.55.62-8.74-.97-5.3-4.35-12.4-7.69-18.05-9.45-4.53.41-11.43,2.57-14.04.82,18.16-33.78,15.44-55.41-3.36-90.82,1.56.47,1.8,1.93,2.97,2.3,3.86,1.5,9.19.93,12.38-.47,5.07-2.33,10.49,3.92,26.07,10.8,1.27.66,2.87-.38,4.28-.67,2.87-.58,5.33-1.82,7.48-1.09.68.23,3.31.86,3.31.86h0ZM99.13,87.41l.05,3.19c-4.99,1.1-13.82-3.16-16.49,3.7.33,7.42,1.98,10.74,3.13,12.98.87,2.01,6.94-.28,9.08,1.75,6.13,7.61,4.68,17.74,4.74,26.87l-2.66,1.36c-18.4-10.94-32.52-44.9-34.48-54.57-.12-6.21,16.88-26.15,16.88-26.15.03-.05,6.19,3.77,6.19,3.77.15.06-.13,26.18-.13,26.06,4.86.25,9.57.73,13.69,1.04h0ZM-27.69,81.63c-.39-1.09-1.97-12.34,2.05-12.62,6.5,2.91,14.8,13.3,18.64,19.65C-2.23,96.52,2.58,114.61-.08,113.82c-.38-.11,8.21,8.55,8.8,9.4.97,1.39-14.48,27.33-17.03,26.4-.77-.28-5.92-3.38-5.92-3.38l.15-8.65.12-17.46-14.16-1.25.5-3.8c4.75.39,9.62,1.29,14.02.26,2.9-5.34,1.79-13.3-1.69-16.52-1.84-1.12-3.58-.76-5.45-.52-7.58-1.28-3.65-14.16-6.95-16.67h0ZM3.87,187.2c1.51-2.26,8.96,1.77,9.35,3.36,4.42-3.49,9.77-3.75,14.08.63,4.43-4.88,9.18-4.55,14.11-1.72-.55-1.1,6.31-5.97,10.48-2.88l11.28,20.24-72.25.24c4.27-6.46,8.05-14.17,12.95-19.87h0Z"/>
  <path id="Fill-304" class="st3" d="M29.77,16.24c5.07,3.13,9.62,2.8,14.03-1.44,5.53,5.07,11.51,2.71,14.04.42,2.34,2.66,5.39,4.14,9.85,3.26l-1.11,2.34c.27-1.24-30.74-3.27-45.75.97,0,0-.87-1.77-.78-1.78,1.31-.08,5.66,1.54,9.72-3.77h0ZM-8.38,86.11c-3.46-7.13-17.86-18.35-17.13-17.22,5.96-5.4,12.61-8.82,19.25-12.28,0,0,1.18,1.13,1,1.41-4.08,6.49-6.06,20.25-2.11,28.13,3.8,8.42,10.54,13.4,17.4,17.31-.53,5.26-.79,9.07-2.07,14.3,0,0-4.32-2.29-7.85-3.76-.56-9.94-2.6-18.84-8.49-27.89h0ZM44.21,90.33c1.24-7.83,4.45-22.14,12.02-33.75.86,2.06,1.58,4.18,2.76,6.11-5.71,8.38-9.22,17.95-11.36,27.73l-3.42-.09h0ZM23.88,90.18c-1.46-16.94-12.96-36.11-13.12-35.7,1.36.22,3.74.89,5.05.27,1.59.26,2.97.08,3.05-.07.1-.59,10.69,24.59,9.27,35.46-.17.37-3.9.39-4.25.04h0ZM40.61,107.06c.56-2.82.95-5.66-.2-8.66l8.8.15-.21,8.6-8.39-.09h0ZM22.08,107.17l.19-8.64,8.12.24c-.69,2.93-.91,5.86,0,8.79l-8.32-.39h0ZM-14.04,137.29l.16-17.01c2.75-.6,4.92.2,7.19-4.78,0,0,3.81,1.83,5.08,2.5-3.56,6.44-6.64,13.32-12.43,19.29h0ZM76.87,147.6c7.59-13.84,6.28-33.77-15.27-44.79,0,0,.57-14.62,2.17-14.65.36.11,9.75-.12,9.75-.12,2.46-6.09,6.42-13.47,11.95-18.44l.14,16.33c-4.09.41-6.59,1.73-7.83,4.96l-5.67,1.28c.41,16.41,6.53,31.57,24.67,45.19-4.33,3.76-19.15,11.39-19.09,11.26l-.82-1.02h0ZM14.84,149.45s-1.56-4.05-2.48-5.79c5.06-8.73,9.21-17.76,11.34-27.8l3.45.03c-1.02,13.86-12.02,34.92-12.31,33.56h0ZM42.96,115.87l4.82-.09c.91,14.15,12.62,35.81,12.91,35.81-.82-1.14-8.55-.24-8.5-.09-4.25-11.46-8.92-22.9-9.23-35.63h0ZM27.06,190.79c-6.81-6.45-13.91-.63-13.75-.26-2.69-2.77-5.33-5.03-8.89-3.92,0,0,0-.97.03-.99,10.6,1.96,26.84,2.46,45.82-1.54l.97,2.05c-5.09-1.82-7.71.64-9.97,3.51-8.17-5.14-10.16-.63-14.21,1.15h0Z"/>
  <path id="Fill-305" class="st0" d="M27.52,195.28c.56,0,1.02.46,1.02,1.03s-.46,1.02-1.02,1.02-1.01-.46-1.01-1.02.45-1.03,1.01-1.03h0ZM11.59,194.98c.53,0,.96.43.96.97s-.43.97-.96.97-.96-.44-.96-.97.43-.97.96-.97h0ZM-.42,193.96c.14.57.2,1.13-.82,1.24l.82-1.24H-.42ZM42.69,193.9c.58,0,1.04.47,1.04,1.05s-.46,1.06-1.04,1.06-1.04-.47-1.04-1.06.46-1.05,1.04-1.05h0ZM54.6,192.18l.92,1.69c-.61.06-1.49-.6-.92-1.69h0ZM53.57,189.85s-.67.12-.88.17c-2.91.79-2.27,4.92.72,4.92.28,0,.99-.11.99-.11-.06,2.8.78,3.49,3.62,3.33l4.8,8.67-71.03-.31,4.52-7.29c2.26.27,3.69-1,3.18-2.95,0,0,1.4.43,1.79.43,2.57.02,3.23-3.96.77-4.65-.27-.08-.96-.15-1.04-.18,1.12-2.84,4.22-1.16,5.1.02,1.99-1.66,4.2-.92,5.14,1.23,0,0-.37-.21-.48-.3-2.34-1.72-4.51,1.85-2.22,3.5.22.16.7.3.7.3,0,0-.28.23-.54.67-1.18,2.01.73,4.47,3.04,3.84,1.77-.7,1.79-2.05,1.79-3.53,0,0,.61.05,1.16.05,2.13.03,2.74-2.72,1.44-4-.71-.69-1.63-.64-2.08-.73,2.45-2.43,4.11-.75,5.84.37.26,0,3-3.33,6.26-.07-1.58-.42-3.2.62-3.22,2.28.03,1.07.79,2.02,2.43,2.1-.18.53-.3.93-.31,1.46-.03,1.74,1.31,2.83,3.02,2.56,1.43-.18,2.48-1.83,1.97-3.2-.23-.62-.54-.84-.54-.84,3.84.48,3.77-4.43.79-4.73-.71-.07-1.26.24-1.97.9,1.75-3.63,4.96-2.9,6.17-1.41,1.65-1.21,3.92-2.87,6.64.08-.45-.1-1.08-.12-1.63.03-2.15.57-2.16,3.34-.45,4.18.48.24,1.07.38,1.7.35-.57,2.33,1.99,3.99,3.8,2.88,1.29-.8,1.63-2.69.23-4.41,2.36-.1,2.59-3.07,1.23-4.12-1.07-.81-2.33-.43-3.24.65-.3-.85,2.04-3.82,5.33-1.68,1.75-1.48,3.48-1.93,5.46-.46h0ZM32.49,187.14c-1.79.85-3.73,2.14-5.28,3.49-1.67-1.38-3.4-2.57-5.27-3.17,3.44.17,7.26.02,10.55-.32h0ZM8.75,186.61c3.29.45,6.58.65,9.87.81-1.9.71-3.86,1.32-5.41,2.74-1.17-1.66-2.81-2.62-4.46-3.55h0ZM51.51,186.57l.66,1.33c-1.59-.86-8.4-2.81-10.33,4.03-2.03-2.78-10.42-6.8-14.67,1.76-1.21-2.32-8.25-8.99-14.67-.49-2.52-5.29-4.64-5.73-9.28-5.01,3.3-3.2,7.94.13,9.91,2.86,5.54-4.64,10.17-3.24,14.21.53,5.23-5.74,10.43-4.36,14.09-1.48,2.58-3.82,5.09-4.97,10.08-3.53h0ZM4.69,185.96l1.04.12s-.35.27-.6.22c-.19-.05-.44-.34-.44-.34h0ZM45.99,185.36c-2.33,1.09-3.73,2.39-4.81,3.77-1.34-1.05-3.04-1.8-5.07-2.26l9.88-1.51h0ZM50.26,184.3l.44,1.22c-1.22-.15-2.64-.22-4.08-.29,1.27-.26,2.54-.58,3.64-.93h0ZM50.71,183.24c-24.47,5.86-44.34,2.24-46.31,1.54l-1.56,2.35c-.19.4-.31,1.6-1.36,1.92l-1.59,2.39.31.33-1.4,1.24.34.42-1.02,1.5-.41-.05-2.36,3.64.36.4-5.44,8.6,73.5.02c-4.27-8.14-8.84-16.13-13.06-24.3h0ZM63.96,143.5c2.01.96,3.52.78,4.88,1.97,1.18.62.83,2.34-.03,2.72-.39.12-1.03.06-1.03.06.71.89,2.27,2.01,2.27,2.01l-2.48,1.05s-.34-1.69-.66-2.61c-.45,1.37-1.98,1.33-2.85.69-.61-.48-.87-2.08-.58-3.47.08-.36.48-2.42.48-2.42h0ZM-10.92,143s0,0,0,.01c.11.15-.29,4.41-.29,4.41l-2.82-1.61s2.86-2.76,3.1-2.81h0ZM1.64,142.86l1.96,1.44-1.94,1.8c1.74-.09,1.89,1.56,1.23,2.48-.43.64-2.07,1.32-3.72,1.59-.99.16-1.8.28-1.8.28,0,0-.04-.77-.07-2.05-.05-2.63.12-3.66,1.12-4.17.72-.37,1.93.21,2.22.88.1.22.36.6.36.6l.64-2.85h0ZM-13.28,141.67c.66-.02,1.61.11,2.02.05.59.06.17.35-1.1,1.52-1.09,1.01-1.41,1.45-1.53,1.02-.06-.69-.04-1.5-.03-2.46.1-.09.34-.13.64-.13h0ZM30.7,139.21c.29,1.79-2.91,4.86-4.71,2.71-.92-1.1-.09-3.36,1.08-1.97,1.29.97,2.53-.15,3.63-.74h0ZM37.44,139.17c.49-.04,1.72,2.1,2.03,3.89.71,4.09,3.14,6.04,4.85,4.39.69-.97.77.09.74.59-.36,5.19-6.18,3.03-6.84-2.12-2.04,1.34-3.95-1.37-2.73-1.32,2.88-.93,2.09-3.6,1.95-5.43h0ZM-6.85,138.58c.24-.05.18.57.14,1.95l-.07,2.34-1.74,1.7c-2.02,1.82-1.77,1.94-1.76.23,0-1.36,0-2.31.29-2.91.88-1.07,1.8-2.02,2.8-3.04.15-.16.27-.25.34-.27h0ZM-9.58,137.44c.8,0,1.8.03,2.25.06.34.27-.37,1.09-1.75,2.55-1.1,1.16-1.26,1-2.6,1.01-2.24.02-2.29.04-1.26-1.15,1.12-1.29,1.78-2.13,2.3-2.4.17-.04.58-.06,1.06-.07h0ZM34.21,135.13c.62,0,1.12.51,1.12,1.13s-.5,1.13-1.12,1.13-1.12-.5-1.12-1.13.5-1.13,1.12-1.13h0ZM59.55,134.99s2.97,1.13,4.3,2.37c1.25,1.05.66,2.78-.58,2.82-.09,0-.61-.08-.61-.08.42.64,1.82,2.23,1.82,2.23l-2.29.94s-.37-1.79-.65-2.79c-.8,1.87-2.77.65-2.9-.51-.32-1.7.4-3.37.91-4.98h0ZM34.21,134.61c-.89,0-1.61.73-1.61,1.62s.72,1.63,1.61,1.63,1.61-.73,1.61-1.63-.72-1.62-1.61-1.62h0ZM7.46,133.81l2.27,1.23-2.27,2.32s.57,0,.76.04c1.45.28,1.34,1.85-.12,3.01-.9.58-4,1.72-4,1.72-.11-1.32-.38-2.53-.33-3.94.02-.64.08-1.35.58-1.91.34-.39.91-.61,1.71-.09.42.38.64.81.64.81l.76-3.19h0ZM-3.04,133.45c.12,0,.16.27.16.87,0,.45.06,1.85.12,2.45.12,1.11.12,1.1-.34,1.76-.57.62-1.16,1.53-1.89,2.24-1.1,1.23-.99,1.3-.97-1.34,0-2.06-.14-2.06.27-2.54.23-.27.93-1.14,1.39-1.81.7-1.03,1.07-1.63,1.26-1.63h0ZM-4.7,132.55c.67,0,1.2.05,1.09.21,0,.34-1.47,2.41-2.34,3.35-.74.8-.84.69-2.65.6-.71-.04-1.18-.04-1.16-.23.83-1.11,1.99-2.53,2.78-3.72.31-.1,1.42-.2,2.28-.21h0ZM97.43,131.27l1.7.99v1.91l-2.42-1.81.72-1.09h0ZM34.21,130.46c1.25.02,2.02,1.36,1.96,2.59l-.05,1.17c1.61-.62,3.61-.02,3.7,1.58.15,2.71-1.82,2.39-3.49,2.28.17.06.41,2.45-.58,3.36-1.56,1.76-4.46-.04-3.73-2.63.15-.53.18-.87.18-.87,0,0-1.04.38-1.41.36-3.16-.13-2.92-4.65.26-4.12.65.11,1.08.27,1.08.27,0,0-.06-.29-.17-.69-.46-1.74.51-3.32,2.25-3.3h0ZM.34,129.17c0,2.57.86,3.41.23,4.22-.78,1.27-1.77,2.65-2.13,3.08-.6.74-.54.6-.7-1.32-.11-1.4-.24-2.33-.06-2.77.52-1.26,1.14-1.86,1.78-3.2.5-1.08.88-.9.88-.01H.34ZM-1.21,127.69c.3,0,.52.02.59.08.13.34-.47,1.38-1.34,2.72-.47.72-.67.92-.95,1.09-.68.38-1.63.28-2.42.34-1.18.01-.97,0,.33-2.06.59-.92.95-1.67,1.3-1.91.07-.05,1.6-.26,2.49-.26h0ZM30.53,126.94c1.34,0,2.31.95,1.03,1.54-2,.94-.81,3.2-.76,4.48.03.78-1.79-.69-2.17-2.27-.5-2.05-.27-3.57,1.9-3.75h0ZM37.57,126.44c4.29-.11,1.78,7-.37,6.54-.03-.07,1.78-4.2-.66-4.86-1.11-.3-.15-1.69,1.03-1.68h0ZM56.47,126.08s1.47.77,2.84,1.83c1.79,1.39,2.09,3.02.31,3.65-.21.08-.8.04-.8.04.5.87,1.66,2.16,1.66,2.16-.58.41-1.41.73-2.32,1.02,0,0-.23-2.15-.45-2.98,0,0-.23.47-.52.65-1.72,1.08-3.07-.95-2.15-3.53.56-1.57,1.43-2.84,1.43-2.84h0ZM12.05,123.98l2.45.81-1.93,2.35s.81-.15.9-.11c1.93.13,1.61,2.06.12,3.24-.62.57-3.67,1.97-3.67,1.97-.33-1.73-1-2.84-.84-4.62.11-.96.2-1.82,1.36-1.85.61-.03.86.6,1.26,1.11l.35-2.9h0ZM3.45,125.51c.48,1.75.47,2.09.14,2.7-.6,1.14-1.39,2.47-1.61,2.83-.54.91-.7.72-1.02-1.47-.2-1.36-.38-1.97-.23-2.57.27-.67,1.08-2.24,1.54-3.17.66-1.97,1.01,1.5,1.18,1.68h0ZM1.81,122.7c.45.01.06.57-.55,1.93-.58,1.33-.77,1.8-1.31,2.02-.78.28-1.89.29-2.88.46-.43.08-.25-.25.4-1.59.77-1.57.81-1.89,2.01-2.22.69-.11,1.62-.61,2.33-.6h0ZM6.75,122.5s1.04.51,1.38.74c-4.67,14.14-17.11,25.82-17.04,25.55l-1.94-1.15c8.27-7.56,14.34-16.49,17.6-25.14h0ZM3.49,120.95c.44-.03,2.24.98,2.63,1.34.13.43-.25,1.1-.82,2.34-.88,1.91-1.05,1.96-1.31.39-.05-.27-.31-1.17-.46-1.76-.37-1.38-.4-2.17-.04-2.31h0ZM.51,119.37c.71.26,1.51.7,2.17,1.07.23.09.17.29.17.5-.28.71-1.53,1.02-2,1.16-.56.17-1.12.28-1.23.3-.64.16-.44-.5.27-1.94.31-.65.44-1.08.62-1.09h0ZM-1.65,118.32l1.48.71c-3.2,7.49-6.07,13.43-13.65,20.74l-.03-2.18c5.33-5.21,8.92-12.09,12.2-19.27h0ZM43.38,116h4.17c1.3,10.34,4.46,21.51,12.48,35.08,0,0-.8.08-1.42-.29-1.37-.86-2.32.27-3.13.23-1.28-.07-1.49-.15-2.81.17-6.61-14.1-8.49-25.2-9.29-35.19h0ZM23.97,116h2.76c-1.22,12.98-9.71,30.53-11.3,32.65l-.53.4s-1.08-3.98-2.35-5.41c4.78-6.52,9.8-19.06,11.42-27.64h0ZM-6.71,115.74l4.48,2.26c-3.05,7.03-6.55,13.62-11.62,18.62l.13-16.25c2.77-.08,5.6-.11,7.01-4.63h0ZM54.19,115.41c.75.59,1.56,1.16,2.33,1.72,2.05,1.46,2.02,4.21.03,4.2-.22,0-.71-.03-.71-.03,0,0,.82,1.8,1.33,2.71-.83.23-2.57.56-2.57.56,0,0,.25-1.77.2-3.24,0,0-.33.37-.61.5-1.32.56-2.44-.6-2.28-1.98.23-1.87,2.28-4.44,2.28-4.44h0ZM40.01,113.31h9.11c1.68,17.02,7.37,28.63,15.83,40.12,0,0-.53.12-.85-.02-.87-1.11-1.68-1.78-2.99-2.12-7.12-10.36-11.89-24.83-13.04-35.91h-5.42c.61,13.91,4.42,25.31,9.5,36.36l-2.75.51c-4.08-9.88-8.55-18.48-9.39-38.94h0ZM21.35,113.16l8.18.1c-1.19,8.36-3.51,19.52-8.1,28.61l-1.92.5c4.04-9.03,6.73-17.51,7.98-26.99h-4.09c-2.35,10.17-5.83,19.6-11.18,27.79l-2.38-.78c5.72-9.17,10.25-19.39,11.51-29.23h0ZM15.01,113.09l2.68.6-1.71,2.82c.51-.23.86-.38,1.37-.19,1.09.4,1.11,1.8.3,3.1-.63.95-2.41,2.09-3.63,2.79-.68-1.49-2.19-4.08-1.59-5.5.32-.76,1.2-1.12,2.02-.71.28.16.8.43.8.43l-.24-3.34h0ZM-10.35,112.52c.94,0,1.91.54,2.49,1.75,1.39,2.92-1.63,5.32-4.41,5.51-4.82.07-10.55-.63-15.39-1.28l.08-2.76c4.44.26,9.44.62,14.84.88-.62-2.56.84-4.1,2.39-4.1h0ZM32.09,111.26c.37-.03.83.13,1.12.44.92.63,1.1,1.44,1.15,4.49.05,2.69,0,2.76.44,3.08,1.08.8,1.72-.42,1.42-3.14-.3-2.63.64-4.54,2.2-4.53.78,0,.92.47.33,1.05-.61.62-.76,1.37-.57,2.89.5,3.89.07,5.8-1.55,6.59-1.69.83-3.86-.12-4.24-2.27-.24-1.44-.24-3.14-.07-4.75.03-1.68-.01-1.88-.59-2.84-.41-.65-.11-.98.36-1.01h0ZM92.99,109.99c-.15.03-.26.37-.28,1.11-.17,1.52-1.42,2.13-2.79,1.42-.55-.28-1.02-.7-1.02-.38,0,.17.44,1.08.75,1.39,1.16,1.06,3.99.81,3.92-1.65-.03-1.16-.34-1.95-.58-1.89h0ZM91.33,108.43c1.86,0,3.36,1.52,3.36,3.39s-1.5,3.39-3.36,3.39-3.35-1.51-3.35-3.39,1.5-3.39,3.35-3.39h0ZM53.63,104.6s.87.91,1.41,1.5c1.85,2.05,2.16,3.96,1.23,4.54-.81.38-1.31.12-1.96-.41.14,1.27,1.13,3.14,1.11,3.14l-2.76.45s.68-2.54.62-3.5c0,0-.56.44-.81.55-1.81.67-2.7-1.4-1.22-3.47,1.24-1.73,2.38-2.8,2.38-2.8h0ZM16.23,102.38l2.1.2-.75,3.03s.34-.36.45-.39c2.69-1.28,2.88,1.61.14,4.22-.6.58-1.57,1.37-1.57,1.37,0,0-.76-1.16-1.37-2.22-.69-1.06-1.16-2.19-1.04-2.79.17-.87,1.21-1.45,1.87-.92.33.27.71.66.71.66l-.54-3.16h0ZM35.5,98.87c2.1,1.23,2.68,5.73-.24,8.05-2.77-2.88-2.21-6.39.24-8.05h0ZM22.46,98.86l7.81.09c-1.29,3.05-.81,6.18-.33,7.94l-7.65-.12.17-7.91h0ZM40.73,98.67l8.16.16-.24,8.08-7.68-.14s1.68-3.61-.24-8.1h0ZM-18.26,98.22c1.99-.04,3.25.66,3.85,2.05.94,2.16,1.07,2.57,1.26,3.7.11.65.28,1.62.38,2.17,1.03,5.87.27,8.08-3.26,9-1.05.27-2.52.36-3.54.11-.27-.07-1.26-.07-2.03-.1-1.54-.05-2.01-.21-2.78-.84-.28-.23-.55-.42-.88-.47-1.76-.28-2.29-1.91-.95-3.11.76-.69.83-.78.76-.9-.04-.06-.36-.12-.72-.12-1.77-.01-1.76-1.86.03-3.18.85-.62,1.23-1.21.67-1.07-1.62.39-2.19-2-.5-2.74.9-.51,1.55-.94.68-.98-.73.06-1.32-.48-1.1-1.13.27-.77,1.75-1.48,2.61-1.21.66.2,1.31.39,1.73.09,1.01-.74,1.46-1.07,2.33-1.19.51-.06,1.04-.08,1.46-.08h0ZM35.44,98.05c-3.52,2.68-2.95,6.87-.29,9.7,2.87-1.92,3.89-7.11.29-9.7h0ZM81.91,97.45l.89.42c1.1,8.76,6.23,20.77,16.33,27.96v1.1c-7.86-5.7-15.07-15.53-17.22-29.48h0ZM35.6,96.7c1.23.17,2.73,2.57,3.07,3.44.65,1.72.71,3.71.11,5.26-.48,1.26-1.93,3.5-2.85,4.13-.74.41-1.36.11-2.42-1.35-2.1-2.87-2.5-6.33-.85-8.7,1.27-1.81,2.2-2.78,2.94-2.78h0ZM79.53,96.37l1.77.89c2.27,15.1,9.62,24.32,17.85,30.68l-.02,1.4-2.21-1.73-2.64,2.8-2.15-1.78.81-.79,1.22.79,1.56-1.77-3.07-2.77-2.68,2.35-2.24-2.33.68-.57,1.55,1.36,1.72-1.54-2.98-3.39-2.68,2.05-1.86-2.5.81-.49.98,1.35,2.06-1.29-2.18-3.39-3.11,1.61-1.59-2.89.91-.44,1.03,1.62,1.93-.94-1.94-3.99-3.18,1.06-1.17-3.14.91-.34.8,1.86,2.15-.7-1.46-4.3-3.28.94-.81-3.16,1.01-.22.53,1.71,2.26-.46-.83-4.1-3.35.43c-.12-.69-.61-2.56-.6-3.27l1.03-.09.33,1.8,2.26-.07-.13-2.25h0ZM35.48,95.8c-.19.02-.38.15-.68.39-1.4,1.13-2.49,2.54-3.06,4-1.2,3.08-.42,6.55,2.29,9.25,1.37,1.37,1.86,1.28,3.97-1.55,1.76-2.38,2.13-5.44,1.04-8.1-.53-1.3-1.49-2.56-2.64-3.48-.45-.36-.68-.53-.92-.51h0ZM54.55,94.61c.99,1.52,2.23,3.09,2.37,4.95-.07,1.83-1.29,2.17-2.56,1.1-.16.96.39,2.84.39,2.84l-2.29-.25s.89-1.59.93-2.58c-1.59,1.12-2.8-.34-2.59-1.51.46-2.01,2.09-3.36,3.75-4.55h0ZM35.41,93.97c.82-.03,1.69.75,3.11,2.42,4,4.68,2.93,11.91-2.29,15.68-.76.55-1.07.5-1.99-.3-5.36-4.65-5.67-10.87-.9-16.33.82-.95,1.43-1.45,2.07-1.47h0ZM74.21,93.75s3.08,1.59,4.7,2.33l.06,2-1.08.04-.37-1.88-2.24.16.7,4.64,3.62-.45.5,2.8-1.22.26-.63-1.72-2.07.51,1.34,4.5,3.26-1.06,1.02,2.94-1.09.4-.7-1.72-2.15.76,1.66,4.39,3.4-1.1,1.37,2.75-1.03.46-.98-1.7-2.04,1.05,2.39,4.1,3.06-1.62,1.44,2.19-1.13.76-1.02-1.34-1.65,1.1,2.64,3.65,2.64-2.01,1.98,2.31-.88.78-1.34-1.38-1.6,1.44,3.15,3.49,2.73-2.4,1.94,1.82-.57.62-1.31-.83-1.73,1.86,3.31,2.91,2.62-2.91,2.22,1.66v1.22l-1.98-1.02-1.34,2.03,3.32,2.54-.02.99c-18.95-11.42-23.94-29.14-24.9-42.32h0ZM72.35,92.84l1.23.63c1.65,22.16,12.73,35.18,24.38,42.94l-.92.56c-14.3-9.25-24.22-25.83-24.69-44.13h0ZM-20.24,92.36c-1.22.05-2.37.8-2.22,1.8.11.43.76-.19,1.39-.59.49-.31,1.08-.36,1.64-.12.49.18.7.64.99,1,.24.3.51.54.66.39.13-.15.08-.35.04-.53-.26-1.37-1.38-1.98-2.5-1.95h0ZM17.74,92.12l-.31,3.04s.5-.4.62-.5c.9-.76,2.31.09,1.99,1.26-.11,1.04-1.88,4.12-2.58,4.77,0,0-2.84-3.13-3.15-3.74-.67-1.36.25-2.78,1.48-2.18.17.09.68.47.68.47l-.9-2.88,2.17-.24h0ZM-20.47,91.1c1.9,0,3.44,1.55,3.44,3.47s-1.54,3.48-3.44,3.48-3.44-1.56-3.44-3.48,1.54-3.47,3.44-3.47h0ZM92.54,91.04c1.58-.06,2,.13,2.13.85.13.69.64.85,1.23.63,1.46-.54,2.34,2.07,1.14,3.23-.75.71-.62.99,0,.99,1.52.01,1.47,2.02-.07,3.16-.64.47-.63.69.04,1.02,1.12.56.89,1.67-.53,2.58-.77.5-.8.62-.16.79,1.61.45-.03,2.77-1.8,2.36-.72-.17-1.41-.01-2.1.44-1.89.8-2.2.95-4.24.7-1.79-.33-2.59-.93-3.05-2.52-1.05-3.23-2.18-6.8-2.2-10.33-.15-2.16,3.44-4.12,5.14-4.2,1.38-.22,2.97.29,4.47.3h0ZM63.48,88.42l8.26,4.11c1.16,15.68,6.51,32.24,24.75,44.8-2.96,2.14-10.37,7.38-18.84,10.98l-.69-.75c10.06-17.29,2.46-36.32-15.16-44.93.05-4.8.65-9.53,1.68-14.21h0ZM85.51,86.49c3.82.15,13.49.94,13.49.94l.08,2.89c-.43.27-7.64-.85-12.95-.75-1.24.03-2.12.58-3.02.12.86.36.78,4.71-3.01,3.66-3.22-1.17-1.65-5.57,2.46-6.68,1.06-.15,1.98-.19,2.95-.18h0ZM35.63,84.04c1.98.02,3.45,2,3.15,4.81-.5,4.84-.21,4.54.31,5.02.95.88-.33,1.41-1.47.57-.78-.58-1.04-1.16-1-3.82.04-3.07-.12-3.85-1.21-3.58-.68.16-.89.74-.81,2.81.1,2.91-.09,3.64-1.18,4.57-1.18.91-2.44.1-1.37-.51.49-.56.58-1.27.39-3.02-.2-1.5-1.06-6.87,3.19-6.85h0ZM71.61,83.64c.55-.03.29.51-.32,1.76-.67,1.39-.5,1.27-1.92.54-1.99-.98-1.87-1.14.65-1.82.79-.3,1.3-.47,1.59-.48h0ZM57.07,83.6s.69.91,1.47,3.3c.75,2.28-.4,4-1.97,3.13-.28-.15-.57-.48-.57-.48-.11,1.1.08,3.09.11,3.11l-2.52-.45s1.38-2.22,1.48-2.77c0,0-.15.12-.85.12-2.53,0-2.01-3.05.92-4.74.44-.25,1.93-1.22,1.93-1.22h0ZM16.22,81.11l-.05,3.33s.39-.48.6-.63c.78-.57,1.96.22,2.01,1.2.06,1.36-.14,1.92-1.22,3.81-.34.59-.84,1.33-.84,1.33,0,0-1.28-.92-2.67-2.32-1.51-1.52-1.22-3.54.1-3.55.4,0,.75.13,1.09.24-.28-.98-1.34-2.88-1.34-2.88l2.32-.53h0ZM66.62,80.96c.45-.09,1.25,3.12,1.01,3.79-.17.48-1.73-.66-2.29-.9-.29-.12.98-2.83,1.28-2.89h0ZM-27.64,79.22c10.46,6.81,17.06,20.91,17.88,29.45,0,0-.28-.19-.85-.45-.79-.37-.99-.61-1.22-1.77-2.07-10.46-7.91-19.32-15.76-25.59l-.05-1.64h0ZM74,78.67c.7,0,.39.55-.46,2.19-.96,1.84-1.13,1.88-2.91,2.32-2.17.53-2.11.65-.94-1.88.46-.98.79-1.83,1.2-2.15.55-.43,1.6-.27,2.75-.44.14-.02.26-.04.36-.04h0ZM-22.67,75.71l2.26,1.83-.64.63-1.25-.93-1.85,2,3.04,2.8,2.57-2.56,2.21,2.33-.68.57-1.29-1.26-1.94,1.67,2.89,3.46,2.91-2.25,1.83,2.42-.74.47-1.2-1.17-1.89,1.33,2.36,3.36,2.97-1.72,1.69,2.8-.94.46-.96-1.54-2.13,1.24,2.01,3.93,3.21-1.35,1.29,2.99-.98.41-.82-1.81-2.16.87,1.45,4.12,3.25-.94.79,3.06-1,.28-.5-1.69-2.07.5.87,4.14,3.31-.21.39,3.34-1.03.05-.25-2-2.11.03c0,.7.09,2.14.09,2.14l-1.28-.6c-1.89-12.72-8.65-23.33-18.71-30.72l-.06-1.52,2.45,1.57s2.25-2.02,2.64-2.53h0ZM69.61,75.11c.19,0,.34.34.52,1.07.43,1.69.54,1.73-.15,3.12-.35.7-.95,1.88-1.19,2.37-.63,1.26-.67,1.25-1.06.12-.76-2.16-.83-1.94.42-4.36.79-1.52,1.18-2.3,1.46-2.32h0ZM74.56,74.13c.3-.01.68.02,1.21.02,1.6,0,2.01-.22,1.3.79-.27.39-.94,1.49-1.14,1.86-.41.75-.49.99-1.16,1.14-.97.19-2.08.06-3.19.11-.24-.01.26-.85.53-1.37.68-1.27,1.1-2.15,1.68-2.42.23-.1.46-.13.77-.13h0ZM61.37,73.42s.21,2.14.52,3.09c.95,2.67-.26,4.3-2.04,3.41-.25-.13-.7-.71-.7-.71l-.17,3.07-2.53-.75c.55-.88,1.34-1.51,1.92-2.51,0,0-.38-.02-.71-.02-1.5.06-2.06-1.63-.48-3.02,1.18-1.03,4.19-2.56,4.19-2.56h0ZM40.03,72.83s.98.72,1.18.91c1.81,1.76,1.82,4.27.19,5.15-1.09.58-2.33.11-2.75-.74-.2-.39.12-.8.54-.8.78,0,1.38-1.5,1.14-3.1-.09-.63-.3-1.42-.3-1.42h0ZM33.29,72.74c.71.99-1.77,3.93,1.47,5.11,0,0,.08.67-.59,1.08-1.59,1.17-3.87-.96-3.17-3.15.46-1.41,1.77-3.03,2.29-3.04h0ZM-27.76,72.01l2.44,1.58-.51.93-1.93-.88v-1.63h0ZM12.18,71.08l.53,3.11c.51-.85.91-1.43,2-1.1,1.31.54,1.33,2.53.22,5.59-.2.56-.46,1.05-.46,1.05,0,0-.57-.24-.96-.5-.8-.56-2.15-1.18-2.84-2.29-.72-1.15-.74-2.76.59-2.62.26,0,.78.12.78.12l-1.99-2.56,2.13-.8h0ZM-26.98,70.33c14.06,8.8,24.35,23.83,24.77,41.99,0,0-2.99-1.43-4.84-2.47l-.1-1.76.98-.03.31,1.99,2.15-.07-.57-4.97-3.36.33-.68-2.82,1.02-.22.56,1.82,2.19-.59-1.17-4.42-3.37.93-1.08-2.99,1.12-.4.9,1.79,2.06-.73-1.94-4.43-3.11,1.48-1.57-2.9,1.21-.65.98,1.72,1.92-1-2.38-4.08-2.95,1.66-1.48-2.24.92-.65,1.01,1.18,1.69-1.21-2.59-3.51-2.82,2.23-2.09-2.44.96-.83,1.44,1.3,1.6-1.41-3.07-3.39-2.69,2.48-2-1.76.98-1.1,1.24.97,1.33-1.59-3.34-2.79-2.51,2.51-2.41-1.61v-1.19c.79.3,1.61.65,2.35,1.05l1.25-1.9-3.6-2.45.78-.83h0ZM72.81,70.15c.23,0,.36.48.43,1.41.26,1.67.23,1.87-.46,2.94-.34.54-.82,1.29-1.05,1.68-.4.68-.68.88-.78.55-.55-1.8-.72-2.92-.52-3.28.31-.6,1.8-2.74,2.01-3.01.15-.2.27-.29.37-.29h0ZM85.17,69.92s.34,9.73.09,15.94c-3.99-.15-6.33,1.38-7.31,4.28l-4.19-2.1c3.08-7.98,7.19-13.54,11.41-18.12h0ZM77.88,69.34c.4.01.93.07,1.72.16,1.44.08,1.62.17.62,1.33-.27.31-.79.98-1.16,1.47-.37.5-.83,1.02-1.03,1.1-.31.1-2.85-.02-3.57-.12-.24-.03.07-.28,1.31-2.07.95-1.37,1.05-1.82,1.95-1.86.05,0,.1-.01.16-.01h0ZM-25.69,69.18C-8.2,80.53-.36,98.11-.39,113.22l-.99-.45c-1.02-21.35-12.5-34.47-24.91-42.96l.6-.63h0ZM36.61,68.47c.64,0,1.16.52,1.16,1.17s-.52,1.17-1.16,1.17-1.15-.52-1.15-1.17.51-1.17,1.15-1.17h0ZM36.62,67.93c-.92,0-1.67.76-1.67,1.7s.75,1.7,1.67,1.7,1.69-.77,1.69-1.7-.76-1.7-1.69-1.7h0ZM85.24,66.11l.03,3.01c-5.61,5.55-9.42,11.78-12.02,18.65l-1.95-.78c3.39-8.78,8.45-15.63,13.94-20.88h0ZM76.75,65.26s.07.02.09.04c.18.17.12.94.1,2.09-.02,1.22,0,1.22-.51,1.86-.64.81-1.18,1.64-1.85,2.43-.58.63-.56.57-.91-.97-.34-1.48-.15-1.95,1.74-4.1.65-.83,1.1-1.36,1.34-1.35h0ZM81.65,64.95c.79-.03,2,.2,2.95.3.73.13.33.55-1.32,2.17-1.51,1.48-1.46,1.34-2.63,1.32-2.71-.04-3.19.02-1.61-1.71.83-.9,1.56-1.72,2.15-2.02.13-.04.28-.06.46-.06h0ZM67.07,63.86c.18,1.5.77,3.14.6,4.54-.25,1.78-1.76,2.84-2.94,1.68-.14-.14-.41-.44-.41-.44-.53.68-.86,2.61-.86,2.61l-2.09-1.3s1.45-1.02,1.85-1.61c.11-.16.16-.47.16-.47-1.16.36-2.14-.84-1.83-1.89.63-1.74,3.76-2.38,5.52-3.12h0ZM38.96,66.36c-.08.78-.3,1.13-.5,1.79,0,0,.66-.26.98-.41,1.5-.71,3.07.6,3.05,2.14.07,1.03-1.04,2.26-2.35,2.27-.46,0-.95-.14-1.42-.5.34,1.89.41,2.76-.95,3.7-1.14.77-3.54-.11-3.4-2.21l.08-1.3-1.15.15c-3.22.13-3.28-3.87-.68-4.5,1.04-.25,2.16.61,2.16.61-.49-.98-.5-2.67.16-3.45,1.64-1.92,4.22-.17,4.02,1.71h0ZM43.31,62.99c1.14-.04,1.98.77,1.91,2.2,0,1.32-.13,1.51-1.05.98-1.21-.69-2.16-.7-3.24.08-.6.43-1.18.78-1.18.78,0,0,.52-2.28,1.32-2.99.77-.69,1.56-1.02,2.24-1.05h0ZM59.35,62.74l2.02.75c-4.21,6.93-8.56,13.78-11.73,29.39h-8.47c1.18-9.54,3.58-18.92,7.87-28.05,0,0,1.66-.51,2.6-.82,0,0-7,16.19-7.82,26.61l4.1.08c2.18-10.14,6.27-20.66,11.43-27.96h0ZM8.35,62.4l.59,2.53s.17-.34.22-.4c1.18-1.84,2.63-.76,2.61,1.78-.01.81-.74,4.02-.74,4.02,0,0-4.45-2.16-4.8-3.11-.35-.93.14-1.75.96-1.83.31-.03.63-.06.98,0l-1.91-1.97,2.09-1.02h0ZM85.12,61.57h.03c.21.13.17,2.71.03,2.88-.64.17-2.36-.11-2.8-.35-.09-.29,2.33-2.55,2.74-2.53h0ZM81.03,60.96c.09-.01.16.02.21.1.13.5.11,1.65-.09,2.79-.16.74-2.36,2.62-3.15,3.37-.31.21-.46.13-.52-.24.03-.59.09-1.38.1-2.18,0-.24-.05-.5.17-.69,1.08-1.29,2.65-3.12,3.28-3.15h0ZM82.92,59c.43.02.94.57,1.73,1.01.77.43.57.66-.88,1.78-1.72,1.33-1.88,1.27-1.86-.63,0-1.26.32-2.1.92-2.16h.09ZM80.73,57.46l1.56.96c-8.19,6.93-13.59,15.73-17.55,25.21l-2.08-.99c6.15-13.76,12.22-19.87,18.07-25.18h0ZM56.35,56.98c.37,2.03,2.28,5.71,2.41,5.5-.02-.12-7.93,10.24-11.36,27.57h-2.94c1.92-11.53,5.77-22.43,11.89-33.07h0ZM-6.35,56.85l.97,1.09c-8.6,15.41-5.57,35.1,15.19,45.45-.14,4.72-.74,9.51-1.85,13.94l-7.66-3.75c.05-17.42-9.71-34.02-25.29-44.94,5.66-4.59,11.91-8.62,18.64-11.79h0ZM73.9,55.72s.08,3.57-.05,4.36c-.26,2.38-3.34,2.63-3.46.72-.5.76-.85,1.71-1.05,2.56l-2.18-1.51c.83-.61,1.62-1.13,2.23-1.88-1.62.13-2.52-1.29-1.44-2.49,1.2-1.38,4.53-1.53,5.95-1.76h0ZM28.01,54.78c1.54.02,3.16,1.57,4.04,4.12.48,1.42.68,1.33,1.33,1.1,1.69-.58,3.48,1.29,1.22,1.6-2.21.37-.95,4.75-1.14,5.14-.9.16-2.58-3.57-2.54-4.67.11-2.72-2.42-4.99-3.99-3.85-.74.54-.66.92-.89.73-.7-.6-.85-2.26-.02-3.19.6-.68,1.28-.99,1.99-.98h0ZM11.34,54.59c.71.41,2.55.85,3.61.45.86-.32,1.5-.14,2.39-.07.51.05,1.53-.18,1.53-.18,5.07,10.79,8.56,23.58,9.14,35.29l-3.99.02c-1.51-12.43-6.27-25.06-12.31-34.43-.27-.41-.62-1.06-.37-1.08h0ZM3.41,54.28l.87,2.76s.11-.64.37-.89c1.7-1.54,3.32.49,2.55,3.25-.17.84-.51,2.51-.51,2.51,0,0-1.7-.88-2.56-1.16-2.36-1.01-3.14-3.01-1.34-3.24.3-.04.92-.06.92-.06-.75-.6-2.4-1.96-2.4-1.96l2.1-1.21h0ZM6.7,52.14c.24-.01.98,1,.98,1,.69.77,1.62,1.16,2.58,1.73.09-.13,11.25,14.99,13.14,35.85l5.19.03c-.97-20.27-6.5-30.01-9.03-36.26l1.86-.6c4.17,8.08,9.26,24.48,9.09,38.84h-8.57c-1.21-14.38-6.75-28.4-14.48-39.04-.54-.81-.96-1.38-.81-1.53,0-.01.03-.01.05-.02h0ZM26.21,50.56c-.17,0-.39.21-.76.57-.8.79-.98.89-1.75,1.01-.58.08-1.81.8-2.55,1.48-.2.19-.59.34-1.05.42-.4.07-.95.17-1.22.22-.27.04-.57.13-.66.19-.39.24-1.02.27-1.74.1-.69-.17-.8-.16-1.56.07-1.1.35-1.83.35-2.37,0-.54-.34-1.41-.47-1.96-.29-.81.27-2.91-1.01-2.9-1.76,0-.17-1.2-1.07-1.5-1.07-1.06-.16-10.41,3.57-10.36,3.79,11.48,14.33,21.15,36.17,13.86,62.89l-1.28-.62c1.08-4.86,1.51-9.75,1.84-14.71-21.56-9.41-23.41-31.28-15.04-45.08l-1.42-1.53c-5.07,2.73-10.23,4.28-22.76,14.91l.04,17.19c.03,15.55.02,30.7.02,30.7,4.54.5,9.53.92,14.46,1.35,0,0-.07,15.37-.18,21.38-.1,5.09.09,4.77.09,4.77l16.31,8.69c-1.14-4.58,1.68-6.39,4.05-6.2-1.04-4.42,1.55-6.44,4.52-5.87,2,.38,2.71,1.5,3.85,5.19.19.6.45,1.4.45,1.4l1.14-.04c1.43-3.11,2.38-7.06,5.75-7.57,4.41-.67,6.05,2.39,6.05,5.45,4.27-3.81,9.38-.86,9.05,4.82,2.15-1.4,5.79-2.66,8.08,2.72.86-.18,1.3-1.15,2.51-1.46.46-.09,1.49-.65,1.49-.65v-.19s.96-.33,2.24-.54c1.1.41.78.4,1.37-.34.66-.34,1.72-.56,2.55-.49.86.08,1.24.14,1.75-.08.79-.35,1.52-.44,1.99.09.34.38.82.19,1.34.17,1.04-.04,2.43.39,2.86,1.34.64.65,2.03,1.32,2.03,1.32l1.13-.26.13-.42,9.24-3.57c-18.84-20.85-18.35-48.5-13.91-62.5l1.71.82c-.91,4.15-1.93,8.42-1.8,14.6,16.97,7.65,25.4,27.4,15.12,44.65l1.09,1.42c4.28-1.81,15.04-7.92,18.76-11.24l.79.07s2.26-1.48,3.25-2.27l.13-45.77-.78.21-.14-2.67-13.99-1.12c.18-.14.31-.19.35-.46l-.08-25.34c-.52-.8-12.23-7.74-16.59-9.36-.17,0-.05.3,0,1.02.21,2.49-1.45,4.7-3.37,4.7-.69.01-.81.3-.78,1.73.05,2.03-.67,3.39-2.79,4.16-2.51.92-4.2-.41-5.6-5.62-.36-1.37-1.08-1.02-1.77.85-.34.92-1.44,3.18-2.1,4.36-.51.92-1.31,1.32-2.4,1.81-.85.42-2.69.35-3.75-.2-1.92-.98-2.67-2.17-3.22-5.11-.08-.38-.33-.35-.95.13-3.4,2.58-8.17-.09-8.14-4.56,0-1.31-.05-1.37-.81-.74-2.3,1.9-5.43.94-6.69-2.06-.29-.7-.45-1.01-.67-1h0ZM20.28,20.22s2.93.34,3.16.4c.25.2-2.47.96-2.48.9l-.68-1.3h0ZM43.86,14.95c6.73,6.36,13.79.86,13.97.47.11.35,3.95,4.99,9.49,3.24l-.9,1.56c-10.42-1.78-20.01-2.92-41.96.34,0,0,3.5-1.05,5.28-3.87.98.65,8.6,4.94,14.12-1.74h0ZM43.26,12.11c5.98,6.89,11.35,4.85,14.86.27,1.5,3.91,4.85,6.61,10.62,3.98-.34.63-1.22,1.73-1.22,1.73-5.1,1.39-7.63-1.04-9.6-3.35-5.19,4.35-10.07,3.3-14.11-.54-3.44,4.38-9.01,5.32-14.16,1.74-2.36,3.52-5.75,4.94-10,3.18,0,0-.9-1.43-.98-1.52.62.52,8.45,3.8,10.36-4.1,2.73,4.68,11.67,4.93,14.23-1.39h0ZM16.24,13.01l-.88-1.65c1.58.11,1.11,1.25.88,1.65h0ZM72.17,10.81l-.89,1.6c-.98-.87-.3-2.01.89-1.6h0ZM28.44,9.54c.56,0,1.02.46,1.02,1.03s-.46,1.04-1.02,1.04-1.03-.46-1.03-1.04.46-1.03,1.03-1.03h0ZM58.97,8.37c.58,0,1.06.48,1.06,1.07s-.48,1.08-1.06,1.08-1.07-.48-1.07-1.08.48-1.07,1.07-1.07h0ZM43.39,8.25c.55,0,1,.45,1,1.01s-.45,1.02-1,1.02-1-.46-1-1.02.45-1.01,1-1.01h0ZM9.35-.1L79.06-.02l-3.93,6.49c-2.34-.73-3.65.36-3.98,2.63,0,0-.29-.13-.84-.19-3.43-.37-3.87,4.2-.66,4.75.82.14.96-.02.96-.02-2.86,2.42-4.49.79-5.83,0-.04.28-2.57,2.2-4.95-.1,3.41.35,3.94-3.11,2.31-4.42-.34-.34-.69-.6-.69-.6.81-.71.98-1.65.47-2.72-1.04-2.16-4.28-2.04-4.78.32-.19.92-.2,1.08-.2,1.08-2.62.17-3.15,2.67-2.25,4.06.51.78,1.64.96,2.68.9-1.4,2.01-4.61,1.32-6.04-.33-2.26,2.7-4.85,2.37-6.14.92.88-.01,1.48-.02,2.29-.77,1.37-1.28.7-3.56-1.25-4.2-.38-.13-.65-.15-.67-.15.01-.02.05-.15.13-.83.49-3.98-5.41-3.59-4.84.32.07.46.19.7.19.7,0,0-.63-.03-.98.13-3.28,1.53-1.02,5.73,1.51,4.65.24-.11.89-.43.99-.43-3.14,3.93-5.77,1.15-6.46.72-2.12,3.17-5.8,1.01-5.87.79.23.06.92-.08,1.57-.42,2.07-1.09,1.49-3.9-.13-4.51-.49-.18-1.09-.19-1.77-.14,0,0,.06-.71,0-.96-1.02-3.82-5.73-1.91-4.57,1.32.1.28.38.57.38.57,0,0-.64.39-.93.65-2.24,2.04.04,5.41,2.67,4.01.34-.18.67-.56.76-.54-1.23,2.28-3.11,3.07-5.78,1.19-1.65,2.64-4.34,1.54-5.1.22,2.52.23,4.15-4.63-.68-4.79-.38-1.32-.36-3.34-3.42-2.99L9.35-.1h0ZM7.95-1.1l12.54,23.57s.36-.07.55-.1c17.37-3.43,31.13-3.9,45.91-1.27L80.09-.85C56.18-1.13,7.95-1.1,7.95-1.1h0Z"/>
</svg>